<?xml version="1.0" encoding="UTF-8" standalone="no"?>
<svg
   width="1600"
   height="1200"
   version="1.1"
   id="svg33"
   sodipodi:docname="crown-logo.svg"
   inkscape:version="1.3.2 (091e20e, 2023-11-25)"
   xmlns:inkscape="http://www.inkscape.org/namespaces/inkscape"
   xmlns:sodipodi="http://sodipodi.sourceforge.net/DTD/sodipodi-0.dtd"
   xmlns="http://www.w3.org/2000/svg"
   xmlns:svg="http://www.w3.org/2000/svg">
  <sodipodi:namedview
     id="namedview33"
     pagecolor="#ffffff"
     bordercolor="#000000"
     borderopacity="0.25"
     inkscape:showpageshadow="2"
     inkscape:pageopacity="0.0"
     inkscape:pagecheckerboard="0"
     inkscape:deskcolor="#d1d1d1"
     showgrid="false"
     inkscape:zoom="0.19666667"
     inkscape:cx="800.84746"
     inkscape:cy="600"
     inkscape:window-width="1440"
     inkscape:window-height="865"
     inkscape:window-x="33"
     inkscape:window-y="50"
     inkscape:window-maximized="0"
     inkscape:current-layer="svg33" />
  <path
     fill="#112b4e"
     transform="matrix(1.17188,0,0,1.17188,-25.423729,0)"
     d="m 0,0 h 1363.83 c 2.17,3.79054 1.17,11.8007 1.17,16.2249 l 0.01,794.0911 -0.01,159.597 c 0,7.66 1.16,47.957 -0.41,52.627 -0.17,0.51 -0.5,1.01 -0.76,1.46 H 0 Z"
     id="path1"
     clip-path="url(#clipPath35)" />
  <path
     fill="#DCF4F9"
     transform="scale(1.17188 1.17188)"
     d="M860.642 355.421C859.322 345.629 860.934 336.378 867.064 328.408C872.883 320.84 881.711 316.215 891.122 315.028Q892.007 314.925 892.897 314.865Q893.786 314.806 894.677 314.79Q895.568 314.775 896.459 314.803Q897.35 314.832 898.238 314.904Q899.127 314.976 900.01 315.092Q900.894 315.208 901.771 315.367Q902.648 315.526 903.516 315.728Q904.384 315.93 905.241 316.175Q906.098 316.42 906.942 316.707Q907.786 316.993 908.615 317.321Q909.444 317.649 910.256 318.017Q911.067 318.386 911.86 318.793Q912.653 319.201 913.424 319.648Q914.196 320.094 914.944 320.578Q915.693 321.062 916.417 321.582Q917.141 322.102 917.838 322.657Q918.488 323.166 919.111 323.707Q919.735 324.248 920.33 324.819Q920.926 325.391 921.492 325.991Q922.058 326.592 922.593 327.22Q923.128 327.849 923.631 328.503Q924.133 329.158 924.603 329.837Q925.072 330.516 925.506 331.218Q925.941 331.919 926.34 332.642Q926.738 333.365 927.1 334.107Q927.462 334.849 927.786 335.608Q928.11 336.367 928.396 337.141Q928.682 337.916 928.928 338.704Q929.174 339.491 929.381 340.291Q929.587 341.09 929.753 341.898Q929.919 342.707 930.044 343.523Q930.169 344.339 930.253 345.16C930.624 348.565 930.6 352.467 929.765 355.802C928.466 351.189 930.278 345.449 928.362 341.235C927.385 339.088 925.443 338.041 923.303 337.297C921.217 336.573 920.145 336.609 918.199 337.515C915.446 341.126 916.598 347.197 916.967 351.47L916.197 348.443C914.594 341.814 911.806 335.692 905.875 331.837C901.486 328.983 896.201 328.141 891.103 329.194C883.739 330.714 879.445 335.491 875.517 341.486C874.901 340.254 875.035 340.203 875.371 338.843C876.924 337.221 878.374 336.446 878.565 334.14C877.341 332.015 875.206 330.922 873.195 329.619C870.802 330.154 868.161 330.365 866.647 332.466C863.062 337.442 861.571 342.83 861.198 348.951C861.07 351.06 861.275 353.398 860.642 355.421Z"
     id="path2" />
  <path
     fill="#97DFFB"
     transform="scale(1.17188 1.17188)"
     d="M496.37 435.744C501.099 441.011 505.121 447.258 509.76 452.695C526.176 471.937 544.216 490.71 564.708 505.644C557.222 511.719 549.773 516.682 541.313 521.299C522.809 530.79 501.082 532.236 480.769 529.733C493.766 499.303 495.891 468.374 496.37 435.744Z"
     id="path3" />
  <path
     fill="#97DFFB"
     transform="scale(1.17188 1.17188)"
     d="M866.277 436.501C867.506 438.398 866.613 463.221 867.091 468.4C869.217 491.42 875.482 510.019 886.302 530.387C865.727 532.522 847.999 531.482 828.26 524.517C818.528 520.785 806.282 515.268 798.794 507.884C824.007 487.119 845.561 461.641 866.277 436.501Z"
     id="path4" />
  <path
     fill="#DCF4F9"
     transform="scale(1.17188 1.17188)"
     d="M671.413 278.874C661.795 275.451 654.098 269.377 649.697 260.004Q649.34 259.255 649.022 258.489Q648.704 257.723 648.424 256.942Q648.145 256.161 647.906 255.366Q647.666 254.572 647.467 253.767Q647.268 252.961 647.11 252.147Q646.952 251.333 646.835 250.511Q646.718 249.69 646.643 248.864Q646.567 248.038 646.534 247.209Q646.5 246.38 646.509 245.55Q646.517 244.721 646.568 243.893Q646.618 243.065 646.71 242.24Q646.802 241.416 646.935 240.597Q647.069 239.778 647.243 238.967Q647.418 238.156 647.634 237.355Q647.849 236.554 648.104 235.765Q648.36 234.975 648.655 234.2Q648.964 233.367 649.313 232.551Q649.663 231.734 650.053 230.937Q650.443 230.139 650.873 229.361Q651.302 228.584 651.77 227.829Q652.238 227.074 652.743 226.343Q653.248 225.613 653.788 224.908Q654.329 224.204 654.904 223.527Q655.48 222.851 656.088 222.204Q656.696 221.557 657.336 220.941Q657.976 220.325 658.646 219.742Q659.316 219.159 660.014 218.61Q660.712 218.061 661.437 217.548Q662.161 217.034 662.911 216.558Q663.66 216.082 664.432 215.643Q665.205 215.205 665.998 214.805Q666.791 214.406 667.603 214.047C676.235 210.239 685.802 210.412 694.507 213.879C703.319 217.389 710.572 224.185 714.176 233.039C717.481 241.159 717.381 251.131 713.876 259.154C709.447 269.292 701.291 275.181 691.292 279.13C693.646 295.647 699.45 311.526 702.375 327.917C702.36 328.136 702.341 328.355 702.329 328.574C702.142 332.008 705.437 340.379 704.438 342.626C703.312 345.158 700.435 346.875 699.234 349.863C698.516 351.647 697.488 355.203 696.023 356.328C693.598 353.539 692.996 336.135 688.463 331.672C685.53 322.476 683.796 312.505 681.742 303.054C680.55 311.313 679.159 319.908 676.716 327.896C676.515 328.113 676.305 328.322 676.114 328.547C672.881 332.357 671.616 348.177 668.93 354.253C668.413 355.422 668.112 356.609 667.739 357.826C667.488 358.646 667.649 358.348 667.093 358.935C664.547 358.093 662.211 357.121 659.488 357.389C658.348 358.12 657.062 359.326 655.708 359.332L655.992 358.76L655.775 358.294C657.284 352.035 661.933 340.318 660.566 334.352C660.859 329.906 662.541 324.962 663.465 320.543C666.333 306.834 669.879 292.785 671.413 278.874Z"
     id="path5" />
  <path
     fill="#112B4E"
     transform="scale(1.17188 1.17188)"
     d="M678.306 225.448C683.278 225.176 687.389 225.412 691.823 227.915Q692.275 228.17 692.714 228.447Q693.152 228.724 693.577 229.023Q694.001 229.321 694.41 229.641Q694.819 229.96 695.212 230.299Q695.605 230.639 695.98 230.997Q696.355 231.355 696.712 231.732Q697.069 232.108 697.407 232.502Q697.745 232.896 698.063 233.306Q698.381 233.716 698.678 234.142Q698.975 234.567 699.251 235.007Q699.527 235.447 699.78 235.9Q700.034 236.352 700.264 236.817Q700.495 237.282 700.702 237.758Q700.91 238.234 701.093 238.719Q701.277 239.205 701.436 239.699Q701.595 240.193 701.729 240.694Q701.857 241.179 701.961 241.67Q702.065 242.162 702.144 242.657Q702.223 243.153 702.277 243.652Q702.331 244.151 702.36 244.653Q702.389 245.154 702.392 245.656Q702.396 246.158 702.374 246.659Q702.352 247.161 702.305 247.661Q702.258 248.161 702.186 248.657Q702.114 249.154 702.017 249.647Q701.92 250.139 701.798 250.626Q701.676 251.113 701.53 251.594Q701.384 252.074 701.214 252.546Q701.044 253.019 700.851 253.482Q700.657 253.945 700.44 254.398Q700.224 254.851 699.984 255.292Q699.745 255.733 699.484 256.162C696.03 261.757 690.875 264.396 684.674 265.927C679.793 266.189 675.679 266.116 671.279 263.71Q670.838 263.469 670.41 263.207Q669.982 262.944 669.568 262.661Q669.153 262.377 668.753 262.074Q668.353 261.77 667.968 261.447Q667.584 261.124 667.216 260.783Q666.848 260.441 666.497 260.081Q666.146 259.722 665.814 259.346Q665.481 258.969 665.168 258.577Q664.855 258.184 664.561 257.777Q664.267 257.369 663.994 256.948Q663.721 256.526 663.47 256.092Q663.218 255.657 662.988 255.211Q662.758 254.764 662.55 254.307Q662.343 253.849 662.158 253.382Q661.973 252.915 661.812 252.44Q661.651 251.964 661.513 251.481Q661.374 250.998 661.259 250.509Q661.144 250.02 661.054 249.525Q660.963 249.031 660.897 248.533Q660.831 248.034 660.79 247.534Q660.749 247.033 660.733 246.53Q660.716 246.028 660.725 245.526Q660.733 245.023 660.767 244.522Q660.8 244.02 660.858 243.521Q660.917 243.022 660.999 242.526Q661.082 242.03 661.189 241.539Q661.297 241.048 661.428 240.563Q661.56 240.078 661.715 239.6Q661.87 239.122 662.049 238.653Q662.228 238.183 662.429 237.723Q662.631 237.262 662.855 236.813Q663.08 236.363 663.326 235.925C666.737 229.855 671.885 227.268 678.306 225.448Z"
     id="path6" />
  <path
     fill="#97DFFB"
     transform="scale(1.17188 1.17188)"
     d="M875.517 341.486C879.445 335.491 883.739 330.714 891.103 329.194C896.201 328.141 901.486 328.983 905.875 331.837C911.806 335.692 914.594 341.814 916.197 348.443L916.967 351.47C916.598 347.197 915.446 341.126 918.199 337.515C920.145 336.609 921.217 336.573 923.303 337.297C925.443 338.041 927.385 339.088 928.362 341.235C930.278 345.449 928.466 351.189 929.765 355.802C929.638 360.138 927.097 365.557 924.653 369.092C919.392 376.702 911.745 382.115 902.615 383.724C891.202 432.803 886.864 476.702 912.591 521.725L898.591 526.845Q898.037 526 897.52 525.131C871.64 482.413 875.912 429.962 887.284 383.316C879.075 395.906 871.451 408.766 862.61 420.949C841.618 449.876 816.82 475.038 790.457 499.005C786.45 495.396 782.6 491.603 778.706 487.874C815.047 459.744 850.432 417.089 873.087 377.013C866.948 371.408 861.428 363.96 860.642 355.421C861.275 353.398 861.07 351.06 861.198 348.951C861.571 342.83 863.062 337.442 866.647 332.466C868.161 330.365 870.802 330.154 873.195 329.619C875.206 330.922 877.341 332.015 878.565 334.14C878.374 336.446 876.924 337.221 875.371 338.843C875.035 340.203 874.901 340.254 875.517 341.486Z"
     id="path7" />
  <path
     fill="#112B4E"
     transform="scale(1.17188 1.17188)"
     d="M875.517 341.486C879.445 335.491 883.739 330.714 891.103 329.194C896.201 328.141 901.486 328.983 905.875 331.837C911.806 335.692 914.594 341.814 916.197 348.443C915.979 350.393 915.768 352.374 915.371 354.296C914.253 359.7 910.26 365.087 905.63 368.013Q905.194 368.288 904.745 368.541Q904.296 368.794 903.834 369.024Q903.373 369.253 902.901 369.46Q902.428 369.666 901.946 369.849Q901.464 370.031 900.973 370.189Q900.483 370.347 899.985 370.48Q899.487 370.613 898.983 370.72Q898.479 370.828 897.97 370.91Q897.461 370.992 896.949 371.049Q896.436 371.105 895.922 371.136Q895.407 371.167 894.892 371.171Q894.376 371.176 893.861 371.155Q893.346 371.134 892.833 371.087Q892.32 371.039 891.809 370.967Q891.299 370.894 890.793 370.795Q890.287 370.697 889.787 370.573Q889.286 370.456 888.791 370.314Q888.296 370.172 887.809 370.004Q887.322 369.837 886.844 369.646Q886.366 369.454 885.898 369.238Q885.431 369.023 884.975 368.784Q884.519 368.545 884.075 368.283Q883.632 368.021 883.202 367.737Q882.773 367.453 882.358 367.147Q881.943 366.842 881.545 366.516Q881.146 366.19 880.765 365.844Q880.383 365.498 880.02 365.133Q879.656 364.769 879.312 364.386Q878.967 364.003 878.642 363.603Q878.318 363.204 878.014 362.788Q877.71 362.372 877.427 361.942Q877.144 361.511 876.884 361.067C873.207 354.718 873.627 348.292 875.517 341.486Z"
     id="path8" />
  <path
     fill="#97DFFB"
     transform="scale(1.17188 1.17188)"
     d="M463.45 315.442C465.584 315.321 467.739 315.189 469.876 315.237C479.054 315.444 488.139 320.227 494.3 326.887Q494.876 327.505 495.421 328.151Q495.965 328.798 496.476 329.47Q496.987 330.143 497.464 330.841Q497.94 331.539 498.381 332.26Q498.822 332.981 499.225 333.723Q499.629 334.465 499.995 335.227Q500.361 335.989 500.688 336.768Q501.015 337.547 501.303 338.342Q501.59 339.137 501.837 339.945Q502.084 340.753 502.29 341.572Q502.496 342.392 502.66 343.221Q502.824 344.05 502.947 344.886Q503.069 345.722 503.149 346.563Q503.229 347.405 503.266 348.249Q503.304 349.093 503.299 349.938Q503.294 350.783 503.246 351.627C502.718 362.326 498.044 369.9 490.363 376.986C494.427 385.716 500.024 393.95 505.352 401.945C528.988 437.413 551.434 458.885 583.571 485.867L574.343 496.879C542.141 472.789 516.491 443.43 493.28 410.845C486.946 401.876 481.466 392.487 476.039 382.956C485.162 435.338 489.663 475.444 468.563 525.815C463.984 524.95 459.44 523.447 454.953 522.184C474.759 478.553 471.037 430.16 460.295 384.719C456.79 383.454 453.213 382.247 450.015 380.302C441.998 375.424 436.103 367.916 434.029 358.687C431.944 349.407 433.67 339.026 438.809 331.008C444.554 322.043 453.303 317.594 463.45 315.442Z"
     id="path9" />
  <path
     fill="#112B4E"
     transform="scale(1.17188 1.17188)"
     d="M464.197 329.467C468.752 329.201 472.649 329.116 476.913 331.016Q477.388 331.225 477.851 331.457Q478.315 331.689 478.766 331.944Q479.217 332.199 479.655 332.477Q480.093 332.754 480.517 333.053Q480.941 333.352 481.349 333.672Q481.757 333.992 482.148 334.332Q482.54 334.672 482.914 335.031Q483.288 335.39 483.643 335.768Q483.999 336.145 484.335 336.54Q484.671 336.935 484.987 337.346Q485.303 337.757 485.598 338.183Q485.893 338.61 486.166 339.05Q486.439 339.491 486.69 339.945Q486.941 340.399 487.169 340.865Q487.397 341.33 487.601 341.807Q487.805 342.284 487.985 342.77Q488.167 343.242 488.325 343.723Q488.483 344.203 488.617 344.692Q488.751 345.18 488.86 345.674Q488.968 346.168 489.052 346.667Q489.136 347.166 489.194 347.669Q489.253 348.171 489.286 348.676Q489.318 349.181 489.326 349.687Q489.333 350.193 489.315 350.699Q489.297 351.205 489.253 351.709Q489.209 352.213 489.14 352.714Q489.071 353.216 488.977 353.713Q488.882 354.21 488.763 354.702Q488.643 355.194 488.499 355.679Q488.355 356.164 488.187 356.641Q488.018 357.118 487.826 357.586Q487.634 358.054 487.418 358.512C484.363 365.066 478.853 368.823 472.248 371.255C467.513 372.137 462.929 371.838 458.553 369.723C453.564 367.312 449.868 362.761 448.146 357.534C446.347 352.071 446.581 345.888 449.23 340.737C452.435 334.504 457.731 331.483 464.197 329.467Z"
     id="path10" />
  <path
     fill="#97DFFB"
     transform="scale(1.17188 1.17188)"
     d="M646.402 670.333C660.957 669.449 675.743 669.884 690.325 669.877C761.896 669.845 835.574 675.429 904.879 694.279C923.353 699.304 944.181 704.805 958.973 717.508L958.901 732.755C958.615 732.63 958.325 732.512 958.041 732.381C956.534 731.683 955.286 730.945 953.573 730.894Q953.112 730.877 952.653 730.911Q952.193 730.944 951.74 731.027Q951.287 731.111 950.845 731.243Q950.404 731.375 949.979 731.554Q949.554 731.734 949.152 731.958Q948.749 732.183 948.374 732.45Q947.998 732.717 947.654 733.023Q947.309 733.329 947 733.671C945.316 735.502 944.569 738.1 944.803 740.555Q944.844 741.017 944.934 741.473Q945.023 741.928 945.16 742.372Q945.297 742.815 945.479 743.242Q945.662 743.669 945.888 744.074Q946.114 744.48 946.381 744.859Q946.648 745.239 946.954 745.588Q947.26 745.937 947.6 746.253Q947.94 746.568 948.312 746.846C951.745 749.424 954.974 748.691 958.858 747.988C958.471 754.743 958.468 761.554 958.315 768.32C899.198 736.311 782.145 723.836 713.626 722.474C639.341 718.936 563.212 726.276 490.394 740.528C462.162 746.054 430.546 751.751 406.05 767.672C406.094 761.296 406.35 754.906 406.503 748.531C410.595 749.021 413.748 750.062 417.738 748.149C420.116 747.008 422.048 745.131 422.754 742.537Q422.875 742.088 422.949 741.629Q423.023 741.169 423.049 740.705Q423.074 740.24 423.052 739.776Q423.029 739.311 422.958 738.851Q422.887 738.391 422.769 737.941Q422.651 737.491 422.486 737.056Q422.322 736.621 422.113 736.205Q421.904 735.79 421.653 735.398Q421.402 735.005 421.11 734.642Q420.818 734.278 420.49 733.948Q420.161 733.618 419.799 733.324Q419.437 733.031 419.045 732.778Q418.654 732.525 418.238 732.315Q417.822 732.105 417.385 731.941Q416.949 731.777 416.498 731.66Q416.047 731.543 415.586 731.475C411.781 730.93 409.312 732.736 406.377 734.793L406.211 719.381C413.477 713.467 421.229 708.595 429.78 704.784C443.756 698.555 458.843 694.812 473.675 691.264C530.2 677.741 588.467 672.712 646.402 670.333Z"
     id="path11" />
  <path
     fill="#112B4E"
     transform="scale(1.17188 1.17188)"
     d="M678.723 678.154C682.663 678.008 686.033 678.433 689.595 680.259C694.098 682.568 697.643 686.607 699.1 691.488Q699.231 691.931 699.339 692.381Q699.447 692.83 699.531 693.284Q699.615 693.739 699.676 694.197Q699.736 694.655 699.772 695.116Q699.808 695.577 699.821 696.039Q699.833 696.501 699.821 696.963Q699.809 697.425 699.773 697.886Q699.736 698.346 699.676 698.804Q699.616 699.263 699.532 699.717Q699.448 700.172 699.34 700.621Q699.232 701.07 699.101 701.514Q698.97 701.957 698.815 702.392Q698.661 702.828 698.484 703.255Q698.308 703.682 698.109 704.099Q697.91 704.517 697.69 704.923Q697.469 705.329 697.228 705.723C694.344 710.406 690.056 712.618 684.913 713.985C681.428 714.124 678.22 714.007 674.919 712.66Q674.492 712.489 674.074 712.297Q673.657 712.104 673.25 711.89Q672.843 711.676 672.447 711.441Q672.052 711.206 671.669 710.951Q671.286 710.697 670.917 710.422Q670.548 710.148 670.193 709.855Q669.839 709.562 669.5 709.251Q669.161 708.94 668.839 708.611Q668.517 708.283 668.212 707.939Q667.907 707.595 667.621 707.235Q667.334 706.875 667.066 706.501Q666.799 706.127 666.551 705.74Q666.303 705.352 666.075 704.953Q665.848 704.553 665.641 704.142Q665.434 703.731 665.249 703.31Q665.064 702.889 664.901 702.459Q664.74 702.021 664.602 701.576Q664.463 701.13 664.348 700.678Q664.233 700.226 664.141 699.769Q664.05 699.312 663.982 698.85Q663.914 698.389 663.87 697.924Q663.826 697.46 663.806 696.994Q663.786 696.528 663.791 696.062Q663.795 695.595 663.823 695.13Q663.851 694.664 663.904 694.2Q663.956 693.737 664.032 693.277Q664.109 692.817 664.209 692.361Q664.308 691.905 664.432 691.456Q664.555 691.006 664.702 690.563Q664.848 690.12 665.017 689.685Q665.186 689.251 665.378 688.825Q665.569 688.4 665.782 687.985C668.576 682.484 673.04 679.906 678.723 678.154Z"
     id="path12" />
  <path
     fill="#2893E0"
     transform="scale(1.17188 1.17188)"
     d="M678.47 690.578C678.612 690.56 678.754 690.54 678.897 690.524C681.389 690.244 683.786 690.406 685.756 692.14C686.807 693.066 687.309 694.278 687.332 695.669C687.374 698.118 685.987 699.57 684.433 701.293C682.168 701.629 679.575 701.892 677.678 700.322C676.481 699.331 675.992 698.277 675.814 696.771C675.515 694.232 676.96 692.436 678.47 690.578Z"
     id="path13" />
  <path
     fill="#112B4E"
     transform="scale(1.17188 1.17188)"
     d="M578.963 682.789C582.675 682.936 586.187 683.39 589.484 685.268Q590.262 685.708 590.992 686.224Q591.721 686.741 592.396 687.328Q593.07 687.915 593.681 688.567Q594.293 689.219 594.836 689.929Q595.379 690.639 595.847 691.401Q596.316 692.162 596.705 692.967Q597.095 693.771 597.402 694.611Q597.708 695.451 597.929 696.317C599.2 701.218 598.542 706.65 595.819 710.958C592.502 716.208 587.781 718.055 582.03 719.195C578.117 719.34 574.644 718.758 571.209 716.777Q570.823 716.552 570.448 716.309Q570.073 716.065 569.712 715.802Q569.35 715.54 569.002 715.26Q568.654 714.979 568.32 714.681Q567.987 714.384 567.669 714.07Q567.351 713.755 567.049 713.426Q566.748 713.096 566.463 712.751Q566.179 712.406 565.912 712.048Q565.645 711.689 565.397 711.318Q565.149 710.946 564.919 710.562Q564.69 710.178 564.481 709.783Q564.271 709.389 564.082 708.984Q563.893 708.579 563.724 708.165Q563.556 707.751 563.408 707.329Q563.261 706.907 563.135 706.478Q563.009 706.049 562.905 705.614Q562.786 705.157 562.692 704.695Q562.597 704.232 562.527 703.765Q562.456 703.298 562.41 702.829Q562.365 702.359 562.343 701.887Q562.322 701.416 562.326 700.944Q562.329 700.472 562.357 700Q562.385 699.529 562.438 699.06Q562.491 698.591 562.568 698.125Q562.645 697.659 562.747 697.198Q562.848 696.737 562.974 696.282Q563.099 695.827 563.248 695.379Q563.397 694.931 563.57 694.492Q563.742 694.052 563.937 693.622Q564.132 693.193 564.349 692.773Q564.566 692.354 564.805 691.947Q565.044 691.54 565.304 691.146C568.593 686.192 573.386 683.982 578.963 682.789Z"
     id="path14" />
  <path
     fill="#2893E0"
     transform="scale(1.17188 1.17188)"
     d="M577.519 695.304C579.815 695.248 581.869 695.193 583.745 696.723C584.863 697.636 585.641 698.912 585.747 700.369C585.949 703.13 584.449 704.98 582.664 706.872C580.248 707.045 578.089 706.913 576.194 705.231C575.054 704.22 574.51 702.894 574.472 701.381C574.406 698.72 575.805 697.158 577.519 695.304Z"
     id="path15" />
  <path
     fill="#112B4E"
     transform="scale(1.17188 1.17188)"
     d="M778.466 682.79C782.942 682.417 786.667 682.063 790.923 683.895C795.578 685.899 799.372 689.642 801.13 694.427Q801.428 695.247 801.645 696.091Q801.861 696.936 801.994 697.798Q802.126 698.66 802.174 699.531Q802.221 700.402 802.183 701.273Q802.145 702.145 802.021 703.008Q801.898 703.871 801.69 704.718Q801.482 705.566 801.193 706.388Q800.903 707.211 800.534 708.001C798 713.467 793.35 716.613 787.848 718.565C784.301 719.181 780.58 719.179 777.117 718.088Q776.695 717.957 776.279 717.805Q775.864 717.652 775.457 717.479Q775.05 717.306 774.653 717.112Q774.255 716.919 773.868 716.705Q773.481 716.491 773.105 716.259Q772.729 716.026 772.365 715.774Q772.001 715.522 771.651 715.253Q771.3 714.983 770.964 714.696Q770.628 714.409 770.306 714.105Q769.985 713.801 769.68 713.481Q769.374 713.161 769.085 712.826Q768.796 712.492 768.524 712.143Q768.253 711.793 767.999 711.431Q767.746 711.069 767.511 710.694Q767.276 710.319 767.06 709.933Q766.845 709.547 766.649 709.15Q766.439 708.725 766.251 708.289Q766.064 707.854 765.898 707.409Q765.733 706.965 765.592 706.512Q765.45 706.06 765.331 705.601Q765.213 705.141 765.118 704.677Q765.024 704.212 764.953 703.743Q764.883 703.274 764.837 702.802Q764.79 702.33 764.769 701.857Q764.747 701.383 764.749 700.909Q764.752 700.434 764.779 699.961Q764.806 699.488 764.857 699.016Q764.909 698.545 764.984 698.077Q765.06 697.608 765.16 697.145Q765.259 696.681 765.383 696.223Q765.506 695.765 765.653 695.315Q765.8 694.864 765.97 694.421C768.2 688.476 772.897 685.25 778.466 682.79Z"
     id="path16" />
  <path
     fill="#2893E0"
     transform="scale(1.17188 1.17188)"
     d="M782.65 694.497C783.107 694.54 783.564 694.583 784.018 694.647C785.965 694.923 787.494 695.61 788.597 697.306C789.551 698.772 789.619 700.368 789.141 702.018C788.297 704.933 786.357 706.129 783.798 707.465C781.796 706.941 779.739 706.062 778.455 704.374C777.553 703.187 777.248 701.838 777.55 700.378C778.157 697.439 780.33 696.04 782.65 694.497Z"
     id="path17" />
  <path
     fill="#112B4E"
     transform="scale(1.17188 1.17188)"
     d="M478.331 697.449C482.064 697.237 485.562 697.472 489.05 698.933Q489.47 699.104 489.88 699.296Q490.29 699.488 490.69 699.701Q491.091 699.913 491.48 700.146Q491.868 700.378 492.245 700.63Q492.622 700.882 492.985 701.152Q493.349 701.423 493.698 701.711Q494.048 702 494.382 702.305Q494.716 702.611 495.035 702.934Q495.353 703.256 495.655 703.594Q495.957 703.932 496.242 704.285Q496.526 704.637 496.792 705.004Q497.058 705.371 497.306 705.75Q497.553 706.13 497.781 706.522Q498.009 706.914 498.217 707.316Q498.424 707.719 498.612 708.132Q498.799 708.544 498.965 708.966C500.848 713.766 500.754 718.951 498.65 723.671C495.992 729.638 491.24 732.675 485.307 734.839C480.966 735.577 476.661 735.229 472.661 733.315Q472.251 733.119 471.852 732.902Q471.452 732.685 471.064 732.447Q470.677 732.21 470.301 731.954Q469.926 731.697 469.564 731.422Q469.203 731.146 468.855 730.853Q468.508 730.559 468.176 730.249Q467.845 729.938 467.529 729.61Q467.214 729.283 466.915 728.94Q466.617 728.597 466.336 728.239Q466.056 727.882 465.794 727.51Q465.532 727.139 465.289 726.754Q465.046 726.37 464.823 725.973Q464.601 725.577 464.398 725.17Q464.196 724.763 464.015 724.346Q463.834 723.929 463.674 723.503Q463.514 723.077 463.376 722.644Q463.22 722.163 463.089 721.674Q462.959 721.186 462.853 720.691Q462.747 720.196 462.666 719.697Q462.585 719.198 462.53 718.695Q462.474 718.192 462.445 717.687Q462.415 717.182 462.411 716.677Q462.406 716.171 462.428 715.665Q462.45 715.16 462.497 714.656Q462.544 714.153 462.616 713.652Q462.689 713.152 462.787 712.656Q462.885 712.159 463.008 711.669Q463.131 711.178 463.279 710.694Q463.426 710.21 463.598 709.735Q463.77 709.259 463.966 708.793Q464.162 708.327 464.381 707.871Q464.601 707.415 464.843 706.971C467.856 701.561 472.512 698.972 478.331 697.449Z"
     id="path18" />
  <path
     fill="#2893E0"
     transform="scale(1.17188 1.17188)"
     d="M478.563 710.474C478.843 710.449 479.123 710.418 479.404 710.399C481.761 710.237 483.906 710.785 485.656 712.443C486.755 713.484 487.25 714.833 487.221 716.336C487.177 718.681 485.85 719.967 484.251 721.506Q483.654 721.634 483.053 721.738C481.089 722.068 479.016 722.087 477.373 720.79C476.299 719.942 475.676 718.649 475.598 717.292C475.436 714.467 476.868 712.563 478.563 710.474Z"
     id="path19" />
  <path
     fill="#112B4E"
     transform="scale(1.17188 1.17188)"
     d="M878.576 697.455C883.015 697.197 886.817 697.051 890.976 698.917C895.818 701.089 899.718 705.089 901.484 710.127Q901.636 710.558 901.767 710.997Q901.898 711.436 902.006 711.88Q902.114 712.325 902.2 712.775Q902.286 713.224 902.349 713.678Q902.412 714.131 902.452 714.587Q902.492 715.043 902.51 715.5Q902.527 715.957 902.521 716.415Q902.515 716.873 902.486 717.329Q902.457 717.786 902.406 718.241Q902.354 718.696 902.279 719.147Q902.204 719.599 902.107 720.046Q902.01 720.493 901.89 720.935Q901.771 721.376 901.629 721.812Q901.487 722.247 901.324 722.674Q901.16 723.102 900.975 723.52Q900.791 723.939 900.585 724.348C897.813 729.861 893.143 732.615 887.522 734.567C883.401 734.758 879.831 734.724 875.953 733.071C870.995 730.958 866.89 726.957 864.996 721.864Q864.695 721.048 864.477 720.206Q864.259 719.364 864.126 718.505Q863.993 717.646 863.946 716.777Q863.898 715.909 863.938 715.04Q863.977 714.172 864.103 713.311Q864.229 712.451 864.44 711.607Q864.65 710.763 864.944 709.945Q865.237 709.126 865.611 708.341C868.291 702.581 872.878 699.661 878.576 697.455Z"
     id="path20" />
  <path
     fill="#2893E0"
     transform="scale(1.17188 1.17188)"
     d="M882.928 708.075C883.087 708.095 883.246 708.114 883.404 708.136C885.94 708.491 888.12 709.245 889.593 711.494C890.768 713.287 890.879 715.354 890.28 717.368C889.24 720.87 887.097 722.33 884.063 723.953C883.287 723.743 882.507 723.516 881.773 723.184C879.418 722.118 877.639 720.271 876.819 717.803C876.204 715.954 876.282 714.052 877.17 712.305C878.427 709.83 880.4 708.886 882.928 708.075Z"
     id="path21" />
  <path
     fill="#2893E0"
     transform="scale(1.17188 1.17188)"
     d="M658.923 734.966C675.879 734.216 693.078 734.891 710.03 735.486C766.781 737.476 834.145 743.78 889.071 757.628Q903.76 761.258 918.042 766.257Q932.324 771.255 946.071 777.577C933.744 782.784 920.103 785.915 907.134 789.214C840.675 806.122 772.451 810.609 704.097 811.568C637.86 813.616 474.698 806.333 416.891 775.746C440.26 763.871 466.875 758.146 492.424 753.061Q512.991 749 533.715 745.833Q554.439 742.667 575.281 740.402Q596.123 738.137 617.043 736.777Q637.964 735.418 658.923 734.966Z"
     id="path22" />
  <defs
     id="defs23">
    <linearGradient
       id="gradient_0"
       gradientUnits="userSpaceOnUse"
       x1="678.06537"
       y1="701.85931"
       x2="682.3006"
       y2="342.40503">
      <stop
         offset="0"
         stop-color="#3EB4F9"
         id="stop22" />
      <stop
         offset="1"
         stop-color="#C1F3FC"
         id="stop23" />
    </linearGradient>
    <clipPath
       clipPathUnits="userSpaceOnUse"
       id="clipPath35">
      <ellipse
         style="fill:#000000;stroke-width:0.85333"
         id="ellipse35"
         cx="705.08173"
         cy="511.9978"
         rx="483.79456"
         ry="485.96402" />
    </clipPath>
  </defs>
  <path
     fill="url(#gradient_0)"
     transform="scale(1.17188 1.17188)"
     d="M676.716 327.896C674.462 341.826 670.115 355.811 666.448 369.43C650.256 429.558 625.76 495.821 573.304 533.563Q571.954 534.525 570.581 535.453Q569.208 536.381 567.812 537.275Q566.416 538.169 564.999 539.029Q563.582 539.888 562.144 540.712Q560.706 541.536 559.248 542.325Q557.79 543.113 556.313 543.865Q554.836 544.617 553.341 545.333Q551.846 546.048 550.334 546.727Q548.821 547.405 547.293 548.046Q545.764 548.687 544.22 549.29Q542.677 549.893 541.118 550.457Q539.56 551.022 537.988 551.548Q536.417 552.074 534.832 552.561Q533.248 553.048 531.652 553.496Q530.057 553.944 528.45 554.352Q526.844 554.76 525.228 555.129Q523.612 555.497 521.988 555.826Q520.363 556.155 518.731 556.443Q517.099 556.731 515.461 556.979Q513.822 557.227 512.177 557.435Q510.533 557.642 508.884 557.809Q507.235 557.976 505.583 558.102Q503.93 558.228 502.275 558.314Q500.62 558.399 498.963 558.443Q497.306 558.488 495.649 558.491Q493.992 558.495 492.335 558.457Q490.678 558.42 489.022 558.342Q487.367 558.263 485.714 558.144Q484.06 558.025 482.411 557.865Q480.761 557.706 479.116 557.505Q477.471 557.305 475.831 557.064Q474.191 556.823 472.558 556.541C428.558 549.313 388.651 524.681 354.822 496.669C348.492 491.427 341.811 486.358 336.012 480.539Q344.451 495.783 352.289 511.345Q360.128 526.906 367.354 542.762Q374.58 558.617 381.183 574.742Q387.786 590.867 393.755 607.237C402.691 631.055 411.24 655.185 417.275 679.94C535.354 631.734 755.567 633.925 879.566 658.901C903.007 663.622 925.357 670.247 947.966 677.99C954.487 646.162 966.668 614.383 978.663 584.24C985.544 566.945 992.584 549.342 1000.76 532.624Q1008.5 516.932 1016.49 501.362C1019.2 496.041 1022.37 490.673 1024.62 485.16C1025.18 483.799 1025.18 482.767 1025.03 481.32C1023.37 485.535 1017.21 489.891 1013.77 492.824C990.158 512.93 963.234 530.721 934.758 543.133C896.521 559.8 855.458 564.232 816.061 548.665C769.871 530.414 742.169 488.808 723.23 444.921C707.718 408.974 697.645 369.68 688.463 331.672C692.996 336.135 693.598 353.539 696.023 356.328C697.488 355.203 698.516 351.647 699.234 349.863C700.435 346.875 703.312 345.158 704.438 342.626C705.437 340.379 702.142 332.008 702.329 328.574C702.341 328.355 702.36 328.136 702.375 327.917C720.87 396.173 742.602 491.522 808.412 529.205C837.308 545.751 871.124 547.593 902.825 538.867C952.778 525.116 1001.54 487.748 1036.89 450.507C1041.44 445.708 1049.74 438.481 1052.87 432.91C1053.13 432.454 1053.12 432.2 1053.17 431.733C1053.14 431.464 1053.11 431.194 1053.07 430.926C1052.64 428.066 1050.11 424.755 1048.92 422.045C1044.44 411.8 1046.11 399.269 1052.4 390.114C1057.68 382.411 1065.1 377.544 1074.28 375.944C1083.55 374.331 1093.26 375.461 1101.09 380.965Q1101.79 381.459 1102.47 381.988Q1103.14 382.517 1103.79 383.079Q1104.44 383.641 1105.06 384.235Q1105.68 384.829 1106.26 385.453Q1106.85 386.077 1107.41 386.73Q1107.97 387.383 1108.49 388.062Q1109.01 388.742 1109.5 389.447Q1109.99 390.152 1110.44 390.881Q1110.9 391.61 1111.31 392.36Q1111.73 393.111 1112.11 393.881Q1112.48 394.652 1112.82 395.44Q1113.16 396.228 1113.46 397.033Q1113.76 397.837 1114.02 398.655Q1114.27 399.473 1114.49 400.303Q1114.71 401.133 1114.88 401.973Q1115.06 402.813 1115.19 403.661C1116.64 412.902 1114.62 422.998 1108.98 430.556Q1108.48 431.217 1107.94 431.852Q1107.41 432.487 1106.84 433.096Q1106.28 433.705 1105.68 434.285Q1105.09 434.865 1104.47 435.416Q1103.84 435.967 1103.2 436.487Q1102.55 437.007 1101.88 437.495Q1101.2 437.982 1100.51 438.437Q1099.81 438.891 1099.1 439.312Q1098.38 439.732 1097.64 440.117Q1096.91 440.501 1096.15 440.85Q1095.4 441.198 1094.63 441.51Q1093.86 441.821 1093.08 442.095Q1092.29 442.368 1091.49 442.604Q1090.7 442.839 1089.89 443.035Q1089.08 443.231 1088.27 443.388Q1087.45 443.544 1086.63 443.661C1079.16 444.738 1072.7 442.952 1065.63 440.853C1065.66 441.583 1065.71 442.189 1065.44 442.889C1062.69 450.105 1057.43 457.597 1053.63 464.426Q1040.72 487.2 1028.67 510.439C998.743 568.533 970.716 635.924 958.719 700.155C916.543 678.56 865.625 670.322 818.984 664.645Q801.191 662.454 783.336 660.846Q765.481 659.239 747.583 658.217Q729.685 657.196 711.763 656.76Q693.841 656.325 675.915 656.477Q657.988 656.629 640.076 657.368Q622.164 658.107 604.286 659.432Q586.408 660.758 568.582 662.668Q550.757 664.577 533.004 667.07C501.45 671.651 470.808 677.205 440.39 687.066C428.759 690.837 417.22 695.395 406.854 701.958C405.09 688.724 400.306 675.332 396.526 662.551Q392.078 647.982 387.158 633.565Q382.238 619.148 376.851 604.899Q371.464 590.651 365.615 576.585Q359.767 562.519 353.463 548.652Q347.16 534.785 340.408 521.13Q333.656 507.475 326.462 494.048Q319.269 480.621 311.642 467.435Q304.015 454.249 295.963 441.319C285.593 444.65 276.686 444.707 266.798 439.689C258.819 435.639 252.628 429.037 249.915 420.428C247.184 411.757 247.966 401.942 252.305 393.928C256.856 385.52 264.897 378.799 274.096 376.093Q274.899 375.859 275.713 375.667Q276.527 375.474 277.35 375.322Q278.172 375.17 279.001 375.06Q279.831 374.95 280.664 374.882Q281.498 374.814 282.334 374.787Q283.17 374.761 284.006 374.777Q284.843 374.792 285.677 374.85Q286.512 374.908 287.342 375.007Q288.173 375.107 288.997 375.248Q289.821 375.39 290.638 375.572Q291.454 375.755 292.26 375.978Q293.066 376.201 293.86 376.465Q294.654 376.728 295.434 377.031Q296.213 377.335 296.977 377.676Q297.74 378.018 298.485 378.398Q299.231 378.778 299.956 379.195C308.033 383.751 314.032 390.855 316.469 399.868C319.597 411.441 315.87 420.774 310.496 430.93C318.49 441.62 328.091 451.332 337.535 460.735C373.31 496.355 423.241 534.446 474.59 541.889C507.271 546.626 538.381 540.599 565.076 520.621C611.71 485.721 633.867 428.779 649.728 374.576C653.612 361.305 656.31 347.442 660.566 334.352C661.933 340.318 657.284 352.035 655.775 358.294L655.992 358.76L655.708 359.332C657.062 359.326 658.348 358.12 659.488 357.389C662.211 357.121 664.547 358.093 667.093 358.935C667.649 358.348 667.488 358.646 667.739 357.826C668.112 356.609 668.413 355.422 668.93 354.253C671.616 348.177 672.881 332.357 676.114 328.547C676.305 328.322 676.515 328.113 676.716 327.896Z"
     id="path23" />
  <path
     fill="#112B4E"
     transform="scale(1.17188 1.17188)"
     d="M281.19 388.803C285.576 388.933 289.666 389.6 293.484 391.915Q293.916 392.174 294.335 392.453Q294.754 392.733 295.159 393.033Q295.563 393.333 295.952 393.653Q296.341 393.973 296.714 394.312Q297.087 394.65 297.443 395.007Q297.798 395.364 298.135 395.738Q298.473 396.112 298.791 396.502Q299.11 396.892 299.409 397.298Q299.707 397.704 299.986 398.123Q300.264 398.543 300.521 398.977Q300.778 399.41 301.013 399.855Q301.249 400.301 301.462 400.757Q301.675 401.214 301.865 401.68Q302.055 402.147 302.222 402.622Q302.388 403.097 302.531 403.58Q302.674 404.063 302.793 404.553Q302.908 405.049 302.997 405.55Q303.087 406.051 303.151 406.556Q303.215 407.06 303.254 407.568Q303.292 408.075 303.305 408.584Q303.318 409.093 303.305 409.602Q303.292 410.11 303.254 410.618Q303.215 411.125 303.151 411.63Q303.087 412.135 302.997 412.636Q302.908 413.137 302.793 413.633Q302.678 414.128 302.539 414.618Q302.399 415.107 302.235 415.589Q302.07 416.07 301.882 416.543Q301.694 417.016 301.482 417.479Q301.27 417.941 301.035 418.393Q300.8 418.844 300.542 419.283Q300.284 419.722 300.005 420.147C296.446 425.673 291.341 428.545 285.037 429.846C280.351 429.958 276.154 429.345 272.095 426.838Q271.66 426.568 271.238 426.277Q270.817 425.985 270.41 425.674Q270.004 425.362 269.614 425.03Q269.223 424.698 268.85 424.347Q268.476 423.997 268.121 423.628Q267.765 423.259 267.429 422.873Q267.092 422.487 266.775 422.084Q266.458 421.682 266.161 421.264Q265.864 420.846 265.589 420.415Q265.313 419.983 265.06 419.538Q264.806 419.092 264.575 418.635Q264.343 418.178 264.135 417.71Q263.927 417.242 263.742 416.764Q263.558 416.286 263.397 415.799Q263.236 415.313 263.1 414.819Q262.964 414.325 262.852 413.825Q262.743 413.322 262.659 412.814Q262.576 412.305 262.517 411.794Q262.459 411.282 262.426 410.768Q262.393 410.254 262.386 409.74Q262.378 409.225 262.396 408.71Q262.414 408.195 262.458 407.682Q262.502 407.169 262.571 406.659Q262.64 406.149 262.734 405.642Q262.828 405.136 262.948 404.635Q263.067 404.134 263.211 403.64Q263.355 403.145 263.523 402.659Q263.692 402.172 263.884 401.694Q264.076 401.217 264.292 400.749Q264.508 400.282 264.747 399.825Q264.985 399.369 265.246 398.925Q265.507 398.481 265.79 398.051C269.532 392.414 274.83 390.151 281.19 388.803Z"
     id="path24" />
  <path
     fill="#112B4E"
     transform="scale(1.17188 1.17188)"
     d="M1077.23 388.996C1083.19 388.217 1088.92 389.237 1093.73 392.998Q1094.13 393.317 1094.52 393.656Q1094.91 393.994 1095.28 394.351Q1095.65 394.708 1096 395.083Q1096.35 395.458 1096.68 395.85Q1097.02 396.242 1097.33 396.649Q1097.64 397.057 1097.93 397.48Q1098.23 397.903 1098.5 398.339Q1098.77 398.776 1099.02 399.225Q1099.27 399.675 1099.5 400.136Q1099.72 400.597 1099.93 401.069Q1100.13 401.541 1100.31 402.022Q1100.49 402.503 1100.65 402.993Q1100.81 403.482 1100.94 403.979Q1101.07 404.476 1101.18 404.979Q1101.29 405.481 1101.37 405.989Q1101.45 406.496 1101.51 407.007C1102.16 412.311 1100.89 417.937 1097.5 422.142C1093.91 426.601 1088.61 429.128 1082.98 429.669C1079.48 430.154 1075.08 429.153 1071.86 427.759C1067.27 425.773 1063.87 421.925 1062.11 417.275Q1061.92 416.789 1061.76 416.294Q1061.6 415.8 1061.46 415.297Q1061.32 414.795 1061.21 414.286Q1061.1 413.777 1061.01 413.264Q1060.93 412.75 1060.87 412.232Q1060.81 411.715 1060.77 411.195Q1060.74 410.675 1060.73 410.154Q1060.73 409.633 1060.75 409.113Q1060.77 408.592 1060.81 408.074Q1060.86 407.555 1060.93 407.039Q1061.01 406.523 1061.1 406.012Q1061.2 405.5 1061.33 404.995Q1061.45 404.489 1061.6 403.99Q1061.75 403.491 1061.93 403.001Q1062.1 402.511 1062.31 402.03Q1062.51 401.549 1062.73 401.079C1065.8 394.653 1070.74 391.366 1077.23 388.996Z"
     id="path25" />
  <path
     fill="#112B4E"
     transform="scale(1.17188 1.17188)"
     d="M676.716 327.896C679.159 319.908 680.55 311.313 681.742 303.054C683.796 312.505 685.53 322.476 688.463 331.672C697.645 369.68 707.718 408.974 723.23 444.921C742.169 488.808 769.871 530.414 816.061 548.665C855.458 564.232 896.521 559.8 934.758 543.133C963.234 530.721 990.158 512.93 1013.77 492.824C1017.21 489.891 1023.37 485.535 1025.03 481.32C1025.18 482.767 1025.18 483.799 1024.62 485.16C1022.37 490.673 1019.2 496.041 1016.49 501.362Q1008.5 516.932 1000.76 532.624C992.584 549.342 985.544 566.945 978.663 584.24C966.668 614.383 954.487 646.162 947.966 677.99C925.357 670.247 903.007 663.622 879.566 658.901C755.567 633.925 535.354 631.734 417.275 679.94C411.24 655.185 402.691 631.055 393.755 607.237Q387.786 590.867 381.183 574.742Q374.58 558.617 367.354 542.762Q360.128 526.906 352.289 511.345Q344.451 495.783 336.012 480.539C341.811 486.358 348.492 491.427 354.822 496.669C388.651 524.681 428.558 549.313 472.558 556.541Q474.191 556.823 475.831 557.064Q477.471 557.305 479.116 557.505Q480.761 557.706 482.411 557.865Q484.06 558.025 485.714 558.144Q487.367 558.263 489.022 558.342Q490.678 558.42 492.335 558.457Q493.992 558.495 495.649 558.491Q497.306 558.488 498.963 558.443Q500.62 558.399 502.275 558.314Q503.93 558.228 505.583 558.102Q507.235 557.976 508.884 557.809Q510.533 557.642 512.177 557.435Q513.822 557.227 515.461 556.979Q517.099 556.731 518.731 556.443Q520.363 556.155 521.988 555.826Q523.612 555.498 525.228 555.129Q526.844 554.76 528.45 554.352Q530.057 553.944 531.652 553.496Q533.248 553.048 534.832 552.561Q536.417 552.074 537.988 551.548Q539.56 551.022 541.118 550.457Q542.677 549.893 544.22 549.29Q545.764 548.687 547.293 548.046Q548.821 547.405 550.334 546.727Q551.846 546.048 553.341 545.333Q554.836 544.617 556.313 543.865Q557.79 543.113 559.248 542.325Q560.706 541.536 562.144 540.712Q563.582 539.888 564.999 539.029Q566.416 538.169 567.812 537.275Q569.208 536.381 570.581 535.453Q571.954 534.525 573.304 533.563C625.76 495.821 650.256 429.558 666.448 369.43C670.115 355.811 674.462 341.826 676.716 327.896Z"
     id="path26" />
  <path
     fill="#97DFFB"
     transform="scale(1.17188 1.17188)"
     d="M801.893 572.499C811.435 572.502 821.269 574.114 830.765 575.179Q854.841 577.807 878.716 581.868Q902.592 585.928 926.183 591.406C932.58 592.834 945.134 594.089 949.815 598.362C950.332 600.468 949.758 601.291 949.055 603.305C940.259 603.209 927.707 598.076 918.627 596.187C891.213 590.484 863.299 585.159 835.445 582.129C829.357 581.467 805.171 580.594 801.554 577.23C801.02 575.303 801.43 574.416 801.893 572.499Z"
     id="path27" />
  <path
     fill="#97DFFB"
     transform="scale(1.17188 1.17188)"
     d="M554.35 573.601C556.254 573.399 558.335 573.042 560.243 573.102C562.144 573.163 562.752 573.7 564.089 574.976C564.314 575.894 564.658 576.238 564.135 577.097C563.103 578.79 560.192 579.504 558.392 579.873C551.113 581.365 543.261 581.726 535.87 582.618Q516.776 585.021 497.722 587.721C472.829 591.234 448.456 596.887 424.049 602.81C422.189 603.346 419.37 604.543 417.476 604.185C416.691 604.036 415.992 603.165 415.726 602.428C415.143 600.813 415.176 599.597 415.797 598.07C422.627 594.333 432.698 593.248 440.377 591.616Q468.618 585.641 497.131 581.134Q525.643 576.627 554.35 573.601Z"
     id="path28" />
  <path
     fill="#97DFFB"
     transform="scale(1.17188 1.17188)"
     d="M607.597 605.616Q611.609 605.332 615.629 605.214C618.499 605.156 621.688 605 623.883 607.128C624.031 608.908 623.725 609.124 622.839 610.609C621.756 611.222 621.144 611.439 619.879 611.558C609.702 612.514 599.412 612.723 589.211 613.491Q561.715 615.675 534.333 618.993Q489.651 624.62 445.746 634.647L432.087 638.169C431.279 635.952 430.695 633.599 430.018 631.334Q451.887 626.212 473.956 622.038Q496.025 617.863 518.253 614.644Q540.481 611.425 562.828 609.167Q585.174 606.909 607.597 605.616Z"
     id="path29" />
  <path
     fill="#97DFFB"
     transform="scale(1.17188 1.17188)"
     d="M740.899 604.649C741.435 604.642 741.972 604.641 742.508 604.654C799.293 606.089 860.853 614.774 915.982 627.934C920.956 629.122 932.198 630.145 935.642 633.798C936.097 636.006 935.748 636.245 934.801 638.207C927.595 637.59 920.058 635.322 912.972 633.807C896.667 630.321 880.272 626.536 863.836 623.77C823.844 617.037 784.079 614.262 743.719 611.232C741.725 611.082 740.957 610.806 739.656 609.296C739.41 607.324 739.97 606.363 740.899 604.649Z"
     id="path30" />
  <path
     fill="#97DFFB"
     transform="scale(1.17188 1.17188)"
     d="M682.008 465.804C685.402 467.274 747.748 532.286 756.783 541.324L714.717 583.989C704.177 594.751 693.859 606.079 682.575 616.049C673.518 608.002 665.283 598.558 656.687 589.99C640.292 573.648 623.56 557.641 608.013 540.477C617.919 531.522 627.031 521.877 636.404 512.377L682.008 465.804Z"
     id="path31" />
  <path
     fill="#112B4E"
     transform="scale(1.17188 1.17188)"
     d="M681.811 492.449C687.966 495.977 722.935 533.102 731.483 541.596C714.811 556.833 699.003 572.995 683.086 589.01C680.48 588.446 638.976 546.267 633.919 540.847C649.543 524.377 666.06 508.808 681.811 492.449Z"
     id="path32" />
  <path
     fill="#97DFFB"
     transform="scale(1.17188 1.17188)"
     d="M682.414 507.891C694.105 517.708 705.142 530.324 715.974 541.173C704.794 551.8 694.132 562.962 683.119 573.761C671.854 562.813 660.952 551.259 648.978 541.092C660.464 530.474 671.136 518.778 682.414 507.891Z"
     id="path33" />
  <g
     inkscape:groupmode="layer"
     id="layer1"
     inkscape:label="Layer 1" />
</svg>
