<?xml version="1.0" encoding="utf-8" ?>
<svg xmlns="http://www.w3.org/2000/svg" xmlns:xlink="http://www.w3.org/1999/xlink" width="1600" height="1200">
	<path fill="#FDFDFD" transform="scale(1.17188 1.17188)" d="M0 0L1363.83 0C1366 3.79054 1365 11.8007 1365 16.2249L1365.01 810.316L1365 969.913C1365 977.573 1366.16 1017.87 1364.59 1022.54C1364.42 1023.05 1364.09 1023.55 1363.83 1024L0 1024L0 0Z"/>
	<!-- <path fill="#1A52C9" transform="scale(1.17188 1.17188)" d="M227.428 270.193C229.467 270.425 230.734 270.501 232.308 271.885C234.328 276.208 231.388 282.157 230.012 286.465C227.812 286.332 227.303 286.36 225.522 285.116C223.428 280.838 226.2 274.544 227.428 270.193Z"/> -->
	<!-- <path fill="#1A52C9" transform="scale(1.17188 1.17188)" d="M262.809 200.394C263.692 200.712 264.762 201.027 265.543 201.548C266.364 202.096 266.812 202.96 266.909 203.912C267.333 208.066 261.526 213.942 259.008 216.963C257.302 216.095 256.263 215.61 255.321 213.901C254.719 209.312 260.17 203.859 262.809 200.394Z"/> -->
	<!-- <path fill="#1A52C9" transform="scale(1.17188 1.17188)" d="M355.038 873.53C355.466 873.569 356.011 873.606 356.448 873.682C360.91 874.461 367.698 876.314 370.348 880.073C370.586 882.254 370.142 882.857 369.263 884.817C364.415 884.612 358.151 881.916 354.737 878.533C353.953 876.298 354.386 875.748 355.038 873.53Z"/> -->
	<!-- <path fill="#1A52C9" transform="scale(1.17188 1.17188)" d="M285.356 169.079C285.496 169.092 285.637 169.094 285.775 169.117C287.719 169.444 288.833 170.162 289.949 171.707C289.952 175.916 283.501 181.186 280.697 184.107C279.682 184.019 278.507 183.998 277.625 183.443C276.454 182.704 276.494 182.262 276.183 181.004C277.378 176.268 282.008 172.461 285.356 169.079Z"/> -->
	<!-- <path fill="#1A52C9" transform="scale(1.17188 1.17188)" d="M169.578 635.056C170.834 635.081 172.036 635.257 173.275 635.442C174.393 636.418 174.783 637.102 175.19 638.55C176.409 642.889 176.767 650.259 174.537 654.248C174.058 654.205 173.305 654.159 172.861 654.022C171.564 653.624 171.053 653.002 170.475 651.816C168.52 647.81 168.118 639.239 169.578 635.056Z"/> -->
	<!-- <path fill="#1A52C9" transform="scale(1.17188 1.17188)" d="M169.605 594.24C170.189 594.282 170.783 594.32 171.36 594.414C172.639 594.621 173.72 595.224 174.404 596.335C176.802 600.233 174.918 608.29 174.064 612.601C173.043 612.527 171.842 612.512 170.866 612.206C170.168 611.987 169.339 611.344 169.002 610.711C166.576 606.152 168.149 598.977 169.605 594.24Z"/> -->
	<!-- <path fill="#1A52C9" transform="scale(1.17188 1.17188)" d="M242.788 233.559C243.619 233.807 244.647 234.053 245.378 234.522C246.448 235.207 246.952 236.336 247.059 237.556C247.428 241.791 243.767 247.925 241.035 251.025C239.926 250.821 238.955 250.324 237.938 249.858C237.272 248.95 236.788 248.552 236.622 247.404C235.989 243.01 240.306 236.981 242.788 233.559Z"/> -->
	<!-- <path fill="#1A52C9" transform="scale(1.17188 1.17188)" d="M312.545 141.101C313.189 141.127 313.587 141.114 314.242 141.284C315.678 141.657 316.181 142.436 316.767 143.68C316.172 148.52 309.309 153.155 305.715 155.972C305.541 155.929 305.362 155.897 305.191 155.842C303.271 155.223 302.559 154.391 301.739 152.631C302.218 148.314 309.333 143.751 312.545 141.101Z"/> -->
	<!-- <path fill="#1A52C9" transform="scale(1.17188 1.17188)" d="M319.123 856.205C324.155 857.076 331.772 860.63 334.741 864.804C335.008 866.864 334.636 867.24 333.741 869.051C333.248 869.036 333.22 869.043 332.662 868.979C327.925 868.436 321.03 864.457 318.158 860.828C317.701 858.643 318.209 858.182 319.123 856.205Z"/> -->
	<!-- <path fill="#1A52C9" transform="scale(1.17188 1.17188)" d="M226.08 781.494C226.448 781.652 227.014 781.872 227.376 782.098C231.305 784.553 236.311 790.681 237.602 795.016C237.195 797.157 236.748 797.452 235.315 799.009C234.727 798.79 234.089 798.604 233.548 798.278C229.687 795.942 225.111 789.534 223.792 785.309C224.113 783.16 224.59 782.988 226.08 781.494Z"/> -->
	<!-- <path fill="#1A52C9" transform="scale(1.17188 1.17188)" d="M455.016 72.1933C456.456 71.9312 457.153 71.9172 458.603 72.3494C459.648 73.7502 459.84 73.8278 459.84 75.6583C457.073 79.1542 449.913 79.5866 445.71 80.3988C445.103 80.5231 444.93 80.5858 444.229 80.5693C441.693 80.5096 441.138 80.0954 439.639 78.2764C439.815 77.7463 439.879 77.4465 440.226 76.9565C442.807 73.3164 450.885 72.8094 455.016 72.1933Z"/> -->
	<!-- <path fill="#1A52C9" transform="scale(1.17188 1.17188)" d="M343.919 117.193C344.926 117.277 345.802 117.296 346.708 117.785C348.139 118.558 348.103 118.715 348.495 120.194C346.838 124.602 340.256 128.088 336.452 130.716C336.044 130.736 335.862 130.764 335.418 130.676C333.623 130.324 332.692 129.93 331.577 128.533L331.854 126.797C334.604 122.721 339.849 119.879 343.919 117.193Z"/> -->
	<!-- <path fill="#1A52C9" transform="scale(1.17188 1.17188)" d="M526.059 67.4395C530.48 67.7935 537.565 67.2795 541.402 69.5203C542.693 70.2748 542.75 70.5441 543.021 71.9001C542.117 73.1805 541.08 73.8499 539.8 74.6966C535.195 74.674 528.254 75.0342 524.094 72.8361C522.823 72.1643 522.81 71.8639 522.438 70.574C523.422 68.9749 524.452 68.367 526.059 67.4395Z"/> -->
	<!-- <path fill="#1A52C9" transform="scale(1.17188 1.17188)" d="M176.889 674.242C177.457 674.466 178.261 674.731 178.748 675.135C181.647 677.536 183.132 686.046 183.14 689.683C183.146 691.796 182.317 692.355 180.97 693.801C179.75 693.516 178.744 693.296 177.825 692.386C175.183 689.768 173.951 681.875 174.177 678.36C174.309 676.313 175.517 675.578 176.889 674.242Z"/> -->
	<!-- <path fill="#1A52C9" transform="scale(1.17188 1.17188)" d="M185.369 713.143C186.558 713.167 187.721 713.355 188.896 713.521C190.712 714.974 191.928 716.966 192.995 719.012C194.968 722.794 196.039 726.728 194.697 730.765C193.576 730.762 192.456 730.639 191.339 730.55C189.331 729.08 187.888 726.487 186.866 724.248C185.266 720.746 183.903 716.766 185.369 713.143Z"/> -->
	<!-- <path fill="#1A52C9" transform="scale(1.17188 1.17188)" d="M378.5 97.2137C380.355 97.3156 381.891 97.7905 383.197 99.0833C383.19 99.6429 383.223 99.9433 383.019 100.513C381.637 104.373 372.38 107.968 368.772 109.745C367.52 109.414 366.437 109.141 365.447 108.257C364.508 107.419 364.772 107.369 364.726 106.199C367.117 102.083 374.335 99.359 378.5 97.2137Z"/> -->
	<!-- <path fill="#1A52C9" transform="scale(1.17188 1.17188)" d="M489.469 67.5778C493.17 67.3763 497.434 66.8424 500.653 69.0807C501.876 69.9312 501.875 70.1414 502.1 71.5206C500.626 73.2594 497.506 73.63 495.379 73.9336C491.493 74.0925 484.015 75.2373 480.994 72.5808C480.89 70.9448 481.206 70.5259 482.328 69.3025C483.981 67.5 487.193 67.6994 489.469 67.5778Z"/> -->
	<!-- <path fill="#1A52C9" transform="scale(1.17188 1.17188)" d="M202.409 748.292C203.015 748.362 203.741 748.408 204.331 748.601C207.875 749.759 212.633 758.907 213.993 762.166C214.94 764.436 214.324 765.46 213.427 767.563C212.592 767.503 211.841 767.401 211.05 767.101C207.478 765.745 203.205 757.449 201.891 754.106C200.906 751.602 201.429 750.618 202.409 748.292Z"/> -->
	<!-- <path fill="#1A52C9" transform="scale(1.17188 1.17188)" d="M252.465 810.452C252.649 810.499 252.833 810.549 253.018 810.592C253.404 810.683 253.794 810.762 254.172 810.88C258.82 812.326 264.626 818.308 266.829 822.431C266.842 824.626 266.245 825.047 265.02 826.81C264.578 826.697 263.904 826.551 263.457 826.358C259.024 824.45 252.927 818.91 250.906 814.593C250.894 812.497 251.337 812.153 252.465 810.452Z"/> -->
	<!-- <path fill="#1A52C9" transform="scale(1.17188 1.17188)" d="M416.146 81.982C416.357 81.991 416.568 81.9825 416.777 82.0089C418.349 82.2069 420.039 82.5811 421.096 83.8134L420.654 85.5763C417.037 89.6623 409.826 91.3396 404.765 93.0498C404.683 93.0639 404.602 93.0912 404.518 93.0921C402.877 93.1116 402.236 92.5339 401.02 91.5819C400.802 91.0988 401.008 89.9027 401.032 89.3365C404.254 84.7533 411.049 83.5726 416.146 81.982Z"/> -->
	<!-- <path fill="#1A52C9" transform="scale(1.17188 1.17188)" d="M283.835 835.029C284.367 835.069 284.398 835.062 284.996 835.161C289.889 835.973 297.278 840.932 300.182 844.813C300.385 846.941 299.954 847.38 298.988 849.229C298.099 849.328 297.154 849.308 296.29 849.048C292.483 847.903 284.57 843.118 282.969 839.279C282.339 837.77 283.279 836.45 283.835 835.029Z"/> -->
	<!-- <path fill="#1A52C9" transform="scale(1.17188 1.17188)" d="M546.882 34.2982C547.383 34.3937 547.89 34.4711 548.381 34.6126C554.434 36.3593 595.175 67.9204 597.712 72.1334L596.724 72.4872L597.411 72.9829C592.971 78.0251 586.666 82.1719 581.341 86.2845Q566.359 97.8369 551.242 109.211C550.668 109.568 550.089 109.929 549.479 110.221C548.381 110.747 547.263 110.8 546.144 110.3C544.809 109.704 544.846 109.284 544.336 107.993C544.664 106.562 544.681 105.942 545.781 104.851C549.94 100.728 555.459 97.2155 560.151 93.6467C569.457 86.5686 578.827 79.4074 587.55 71.6163C580.615 67.0612 548.721 44.1679 545.524 38.9768C545.451 36.7939 545.903 36.199 546.882 34.2982Z"/> -->
	<!-- <path fill="#1A52C9" transform="scale(1.17188 1.17188)" d="M967.693 895.525Q968.247 895.537 968.801 895.571C969.164 895.594 969.771 895.632 970.128 895.715C974.638 896.758 974.945 905.159 978.087 908.395C982.266 912.699 989.014 914.246 993.088 918.772C993.376 922.41 985.285 924.869 982.329 927.01C976.743 931.056 974.735 937.241 971.486 943.009C965.014 942.433 964.758 932.621 960.71 928.398C957.634 925.189 952.005 924.23 948.413 921.423C946.977 920.3 946.707 919.578 946.554 917.827C947.929 916.038 951.572 915.325 953.692 914.359C962.186 910.488 964.612 903.68 967.693 895.525Z"/> -->
	<!-- <path fill="#FDFDFD" transform="scale(1.17188 1.17188)" d="M969.855 909.083C972.629 913.98 975.396 916.296 980.256 919.085C975.851 922.232 972.88 924.945 970.131 929.652C966.373 926.26 964.224 922.171 959.808 919.212C964.003 916.289 967.07 913.399 969.855 909.083Z"/> -->
	<!-- <path fill="#1A52C9" transform="scale(1.17188 1.17188)" d="M1051.48 828.31C1052.92 828.072 1054.6 827.428 1055.88 828.432C1058.21 830.26 1064.09 848.751 1070.81 855.319C1075.06 859.469 1082.25 862.076 1087.64 864.633C1090.57 866.027 1093.78 867.141 1094.96 870.439C1093.62 873.905 1075.1 879.735 1069.92 884.762C1062.59 891.885 1060.38 905.651 1055.91 909.91L1055.31 911.086L1053.63 911.559C1050.45 910.577 1050.02 908.249 1048.8 905.429C1045.88 898.669 1042.58 889.908 1037.55 884.481C1031.72 878.199 1019.07 876.928 1014.78 869.619C1014.73 868.535 1014.54 868.1 1015.41 867.29C1018.66 864.247 1028.65 861.567 1033.61 857.851C1044.05 850.024 1046.59 839.685 1051.48 828.31Z"/> -->
	<!-- <path fill="#FDFDFD" transform="scale(1.17188 1.17188)" d="M1053.24 844.988C1056.62 846.577 1058.56 853.456 1060.91 856.461C1065.4 862.217 1075.2 865.536 1078.52 869.977C1073.06 874.389 1066.58 876.461 1062.03 882.381C1059.29 885.96 1057.66 890.651 1054.67 893.968C1054.45 894.22 1054.21 894.464 1053.98 894.712L1053.79 894.841C1052.39 894.556 1049.89 888.793 1048.86 887.263C1043.76 879.654 1037.08 873.863 1028.7 870.156C1029.28 869.896 1029.83 869.644 1030.38 869.325C1039.13 864.269 1050.53 855.241 1053.24 844.988Z"/> -->
	<path fill="#1A52C9" transform="scale(1.17188 1.17188)" d="M741.571 37.6136C766.946 34.2775 799.517 42.3395 822.082 53.8495C842.477 64.2521 861.799 82.2606 872.48 102.646C876.113 109.58 878.528 116.81 880.937 124.226C887.794 126.551 894.352 129.905 900.903 132.986C930.09 146.715 957.676 165.125 973.869 193.837Q974.475 194.914 975.055 196.006Q975.634 197.098 976.187 198.204Q976.739 199.31 977.264 200.429Q977.788 201.548 978.285 202.68Q978.782 203.812 979.251 204.956Q979.72 206.1 980.16 207.255Q980.6 208.41 981.012 209.576Q981.423 210.741 981.806 211.917Q982.188 213.092 982.542 214.277Q982.895 215.462 983.219 216.655Q983.543 217.848 983.837 219.048Q984.131 220.249 984.396 221.457Q984.66 222.664 984.895 223.878Q985.129 225.092 985.333 226.311Q985.538 227.53 985.712 228.754Q985.886 229.978 986.03 231.206Q986.173 232.434 986.287 233.665Q986.4 234.896 986.483 236.129Q986.566 237.363 986.618 238.598Q986.67 239.833 986.692 241.069Q986.714 242.305 986.704 243.541Q986.696 244.777 986.656 246.013Q986.616 247.248 986.546 248.483Q986.476 249.717 986.376 250.949Q986.275 252.181 986.144 253.41Q986.013 254.64 985.851 255.865Q985.69 257.091 985.498 258.312Q985.306 259.533 985.084 260.749Q984.862 261.965 984.61 263.176Q984.358 264.386 984.076 265.59Q983.794 266.793 983.483 267.99Q983.171 269.186 982.83 270.374C976.207 293.89 959.591 315.437 939.488 329.288C928.673 336.74 916.76 342.628 905.237 348.886L861.137 373.115C867.687 377.62 874.93 381.445 881.79 385.488L920.302 408.1C949.842 425.415 979.046 443.43 1008.72 460.489C1018.23 465.957 1075.76 497.673 1079.67 502.634C1085.78 500.663 1091.78 497.044 1097.84 494.669C1131.92 481.298 1171.59 479.295 1205.55 494.189C1232.24 505.895 1258.34 525.63 1269.07 553.616Q1269.47 554.646 1269.84 555.686Q1270.22 556.725 1270.56 557.774Q1270.91 558.823 1271.23 559.88Q1271.55 560.937 1271.85 562.002Q1272.14 563.067 1272.41 564.138Q1272.67 565.21 1272.91 566.288Q1273.15 567.367 1273.37 568.451Q1273.58 569.534 1273.77 570.623Q1273.95 571.712 1274.11 572.805Q1274.27 573.898 1274.4 574.995Q1274.53 576.092 1274.64 577.192Q1274.74 578.292 1274.82 579.394Q1274.89 580.496 1274.94 581.599Q1274.99 582.703 1275.01 583.808Q1275.03 584.912 1275.03 586.017Q1275.02 587.121 1274.98 588.226Q1274.95 589.33 1274.89 590.433Q1274.82 591.536 1274.74 592.637Q1274.65 593.738 1274.53 594.836Q1274.41 595.935 1274.27 597.03Q1274.12 598.125 1273.95 599.216Q1273.78 600.307 1273.58 601.394Q1273.38 602.48 1273.15 603.561Q1272.92 604.642 1272.67 605.718Q1272.42 606.793 1272.14 607.861Q1271.86 608.93 1271.55 609.991Q1271.24 611.052 1270.91 612.105Q1270.57 613.158 1270.21 614.202Q1269.85 615.246 1269.47 616.281Q1269.08 617.316 1268.67 618.341Q1268.26 619.366 1267.82 620.381Q1267.38 621.395 1266.92 622.398C1254.72 649.38 1229.68 668.624 1202.39 678.757Q1199.58 679.782 1196.74 680.688Q1193.89 681.594 1191.01 682.381Q1188.12 683.168 1185.21 683.833Q1182.3 684.498 1179.36 685.041Q1176.42 685.584 1173.46 686.004Q1170.51 686.423 1167.53 686.719Q1164.56 687.015 1161.58 687.186Q1158.59 687.357 1155.61 687.403Q1152.62 687.449 1149.63 687.37Q1146.65 687.291 1143.67 687.088Q1140.69 686.884 1137.72 686.556Q1134.75 686.228 1131.79 685.776Q1128.84 685.324 1125.91 684.749Q1122.97 684.174 1120.07 683.477Q1117.16 682.78 1114.29 681.962Q1111.42 681.143 1108.58 680.206C1098.74 676.906 1089.63 672.35 1080.23 668.031C1076.81 672.119 1015.83 703.564 1007.12 708.297L894.323 769.912C839.299 799.989 784.894 831.562 729.183 860.331C731.149 883.42 724.713 903.545 710.943 921.905C690.476 949.196 658.855 963.867 625.699 968.634C601.695 973.151 573.296 970.659 550.526 961.841C516.573 948.691 495.036 930.513 480.08 896.519C450.412 883.001 419.852 863.577 403.525 834.359C390.777 811.545 386.097 784.41 393.402 759.018C400.513 734.3 417.444 712.257 438.59 697.823C449.831 690.15 462.337 684.019 474.283 677.498L519.159 652.573C500.439 641.785 482.126 630.059 463.561 618.982Q415.568 590.316 367.13 562.411C349.648 552.188 332.056 540.181 314.123 531.122C308.066 536.77 301.78 542.191 294.803 546.683C265.229 565.725 225.083 571.153 191.011 563.847C159.674 557.128 129.549 539.525 112.037 512.053Q111.396 511.058 110.781 510.047Q110.165 509.037 109.575 508.011Q108.985 506.985 108.421 505.945Q107.856 504.905 107.318 503.85Q106.781 502.796 106.269 501.729Q105.758 500.662 105.274 499.582Q104.789 498.502 104.332 497.411Q103.875 496.319 103.445 495.216Q103.015 494.114 102.614 493.001Q102.212 491.887 101.838 490.765Q101.464 489.642 101.118 488.51Q100.773 487.378 100.456 486.238Q100.139 485.097 99.8503 483.95Q99.5619 482.802 99.3024 481.647Q99.0429 480.492 98.8124 479.332Q98.5819 478.171 98.3806 477.005Q98.1793 475.838 98.0073 474.667Q97.8353 473.497 97.6927 472.322Q97.5501 471.147 97.437 469.969Q97.3239 468.791 97.2404 467.61Q97.1569 466.43 97.103 465.247Q97.0491 464.065 97.0249 462.882Q97.0007 461.699 97.0061 460.515Q97.0116 459.332 97.0467 458.149Q97.0818 456.966 97.1466 455.784Q97.2114 454.602 97.3058 453.422Q97.4002 452.243 97.5241 451.066Q97.648 449.889 97.8014 448.715Q97.9548 447.542 98.1376 446.372Q98.3204 445.203 98.5325 444.039Q98.7445 442.875 98.9857 441.716Q99.2269 440.557 99.497 439.405C105.253 413.843 122.578 392.314 144.431 378.428C175.766 358.517 216.154 353.639 251.968 361.639C262.856 356.913 273.412 350.272 283.864 344.564L357.755 303.294L504.319 222.778L567.335 188.075C586.754 177.307 606.096 166.235 626.066 156.511Q625.625 153.2 625.325 149.874C623.195 125.164 629.991 102.134 646.144 83.0828C669.971 54.9823 705.466 40.5681 741.571 37.6136Z"/>
	<path fill="#92BAF8" transform="scale(1.17188 1.17188)" d="M392.847 478.785C396.352 478.416 400.034 478.16 403.439 479.21C407.665 480.513 411.975 483.282 413.852 487.415C414.769 489.435 414.96 491.707 414.089 493.777C412.346 497.919 408.281 499.657 404.407 501.209C400.953 501.499 397.181 501.774 393.85 500.687C389.624 499.308 385.431 496.505 383.497 492.387C382.536 490.342 382.274 488.093 383.166 485.974C384.9 481.857 388.988 480.253 392.847 478.785Z"/>
	<path fill="#92BAF8" transform="scale(1.17188 1.17188)" d="M396.879 354.797C400.286 354.456 403.624 354.363 406.876 355.584C411.041 357.148 415.208 360.183 416.911 364.406C417.746 366.478 417.861 368.779 416.939 370.845C415.149 374.859 411.115 376.534 407.267 377.921C402.785 378.643 398.693 378.906 394.352 377.155C390.851 375.743 387.623 373.246 386.213 369.643C385.27 367.234 385.343 364.662 386.456 362.325C388.527 357.979 392.705 356.438 396.879 354.797Z"/>
	<path fill="#92BAF8" transform="scale(1.17188 1.17188)" d="M522.858 553.474C527.111 553.112 531.066 553.063 535.035 554.969C538.485 556.626 541.628 559.313 542.814 563.069C543.556 565.418 543.304 567.91 542.06 570.04C539.741 574.013 535.584 575.42 531.457 576.674C527.323 577.141 523.142 576.971 519.271 575.338C515.862 573.901 512.54 571.437 511.207 567.863Q511.061 567.479 510.954 567.082Q510.847 566.685 510.78 566.279Q510.714 565.873 510.689 565.463Q510.664 565.053 510.681 564.642Q510.698 564.231 510.756 563.824Q510.814 563.417 510.913 563.018Q511.012 562.619 511.15 562.232Q511.289 561.845 511.466 561.474C513.592 556.983 518.485 555.027 522.858 553.474Z"/>
	<path fill="#92BAF8" transform="scale(1.17188 1.17188)" d="M719.437 766.111C723.593 765.747 727.711 765.4 731.627 767.197C735.323 768.894 738.622 771.695 739.948 775.655C740.73 777.993 740.768 780.448 739.571 782.655C737.501 786.471 733.609 788.148 729.723 789.458C726.053 789.846 721.804 790.065 718.235 788.965C714.398 787.783 710.711 785.346 708.918 781.652C707.79 779.325 707.537 776.617 708.581 774.21C710.54 769.695 715.15 767.719 719.437 766.111Z"/>
	<path fill="#92BAF8" transform="scale(1.17188 1.17188)" d="M966.438 626.864C969.845 626.604 973.434 626.973 976.579 628.384C979.729 629.799 982.434 632.321 983.548 635.648C984.526 638.567 984.132 641.59 982.576 644.223C979.935 648.688 975.676 650.066 970.989 651.335C966.307 651.396 962.507 651.209 958.389 648.587C955.565 646.79 953.223 643.974 952.587 640.622C952.085 637.971 952.616 635.404 954.137 633.181C957.056 628.914 961.703 627.827 966.438 626.864Z"/>
	<path fill="#92BAF8" transform="scale(1.17188 1.17188)" d="M856.161 449.463C860.27 449.16 864.216 449.35 868.039 451.013C871.166 452.372 874.142 454.79 875.319 458.086C876.204 460.564 876.031 463.221 874.774 465.538C872.365 469.979 867.762 471.547 863.264 472.946C859.438 473.081 855.476 472.989 851.859 471.608C848.292 470.247 844.702 467.901 843.203 464.243Q843.047 463.87 842.93 463.482Q842.813 463.095 842.736 462.697Q842.66 462.3 842.625 461.897Q842.59 461.493 842.597 461.089Q842.604 460.684 842.652 460.282Q842.701 459.88 842.791 459.486Q842.881 459.091 843.011 458.708Q843.141 458.325 843.31 457.957C845.591 452.974 851.368 451.061 856.161 449.463Z"/>
	<path fill="#92BAF8" transform="scale(1.17188 1.17188)" d="M549.123 270.801C552.932 270.57 556.762 271.023 560.2 272.773C563.564 274.485 566.701 277.218 567.776 280.963C568.509 283.515 568.201 286.011 566.803 288.277C564.339 292.274 560.144 293.591 555.896 294.724C551.327 294.825 547.297 294.911 543.121 292.7C539.629 290.852 536.709 287.99 535.718 284.067C535.108 281.653 535.57 279.187 536.959 277.13C539.757 272.99 544.549 271.799 549.123 270.801Z"/>
	<path fill="#92BAF8" transform="scale(1.17188 1.17188)" d="M791.512 726.086C794.92 725.897 798.551 725.688 801.805 726.885C805.719 728.325 809.394 731.092 811.089 734.987C812.106 737.326 812.176 739.901 811.122 742.239C809.109 746.705 804.437 748.532 800.13 750.021C795.386 750.372 791.184 750.503 786.777 748.332C783.56 746.747 780.639 744.221 779.553 740.694Q779.408 740.238 779.312 739.769Q779.215 739.3 779.168 738.824Q779.121 738.348 779.123 737.869Q779.126 737.39 779.178 736.914Q779.23 736.439 779.332 735.971Q779.433 735.503 779.582 735.048Q779.732 734.594 779.928 734.157Q780.124 733.72 780.364 733.306C782.724 729.275 787.244 727.326 791.512 726.086Z"/>
	<path fill="#92BAF8" transform="scale(1.17188 1.17188)" d="M476.132 312.287C479.996 312.586 483.254 313.68 486.469 315.824C489.453 317.814 491.938 320.939 492.485 324.561Q492.559 325.023 492.585 325.491Q492.611 325.958 492.59 326.425Q492.568 326.893 492.499 327.356Q492.43 327.819 492.313 328.272Q492.197 328.726 492.035 329.165Q491.873 329.604 491.667 330.024Q491.461 330.444 491.213 330.841Q490.965 331.238 490.678 331.608C487.469 335.815 482.429 336.636 477.553 337.4C473.556 336.872 469.936 336.261 466.469 334.013C463.428 332.041 460.875 329.089 460.273 325.423Q460.194 324.947 460.164 324.464Q460.134 323.982 460.154 323.5Q460.175 323.017 460.245 322.539Q460.315 322.061 460.434 321.593Q460.554 321.125 460.721 320.672Q460.888 320.219 461.101 319.786Q461.314 319.352 461.571 318.943Q461.828 318.534 462.126 318.154C465.594 313.646 470.866 312.772 476.132 312.287Z"/>
	<path fill="#92BAF8" transform="scale(1.17188 1.17188)" d="M869.763 681.48C873.815 681.739 877.369 682.371 880.847 684.612C883.687 686.44 885.982 689.327 886.539 692.72Q886.62 693.201 886.652 693.687Q886.685 694.173 886.669 694.661Q886.654 695.148 886.59 695.631Q886.526 696.114 886.415 696.589Q886.304 697.064 886.146 697.525Q885.988 697.986 885.786 698.429Q885.583 698.873 885.338 699.294Q885.093 699.715 884.807 700.11C881.471 704.774 876.393 705.73 871.111 706.448C866.999 706.356 863.182 705.794 859.64 703.476C857.043 701.776 855.07 699.2 854.506 696.11C854.012 693.407 854.715 690.688 856.264 688.446C859.511 683.746 864.502 682.442 869.763 681.48Z"/>
	<path fill="#92BAF8" transform="scale(1.17188 1.17188)" d="M940.824 498.751C944.462 498.559 947.564 498.717 951.008 500.163C954.796 501.753 958.304 504.646 959.781 508.57C960.81 511.306 960.696 514.331 959.307 516.919C957.024 521.173 952.893 522.824 948.526 524.019C944.477 524.127 940.615 524.143 936.803 522.582C933.22 521.113 929.802 518.509 928.357 514.805C927.396 512.34 927.432 509.635 928.57 507.237C930.81 502.52 936.164 500.265 940.824 498.751Z"/>
	<path fill="#92BAF8" transform="scale(1.17188 1.17188)" d="M620.995 229.483C625.081 229.469 628.98 229.834 632.633 231.839C636.046 233.711 639.101 236.804 639.979 240.704C640.57 243.327 640.111 245.991 638.573 248.209C635.706 252.343 630.912 253.433 626.297 254.32C621.962 254.507 617.445 253.681 613.638 251.538C610.618 249.839 607.901 247.141 607.021 243.699C606.367 241.138 606.839 238.505 608.264 236.288C611.075 231.914 616.225 230.453 620.995 229.483Z"/>
	<path fill="#FDFDFD" transform="scale(1.17188 1.17188)" d="M852.988 377.945C857.916 378.765 878.339 392.209 884.28 395.743L1010.58 470.445L1054.77 496.115C1060.6 499.573 1067.15 502.699 1072.55 506.764C1071.26 508.967 1066.87 511.065 1064.69 512.799C1058.59 517.646 1052.48 523.136 1047.46 529.112C1042.68 534.802 1039.05 541.767 1036.01 548.532C1034.43 552.058 1033.23 556.572 1030.75 559.523C1027.73 555.871 1009.74 546.491 1004.53 543.408Q985.612 532.38 966.889 521.025C968.491 514.734 969.136 508.537 965.839 502.625C962.847 497.261 957.546 493.667 951.665 492.149C942.362 489.747 934.315 492.169 926.267 496.86C911.659 487.539 896.472 479.009 881.563 470.174C882.276 467.986 883.214 465.717 883.542 463.432C884.172 459.044 882.845 454.203 880.111 450.723C876.153 445.685 869.608 443.021 863.375 442.337C854.141 441.325 847.167 444.414 840.117 450.087C821.073 438.851 802.408 426.857 783.002 416.253C791.94 410.715 801.362 405.881 810.571 400.811C824.654 393.057 838.652 385.227 852.988 377.945Z"/>
	<path fill="#FDFDFD" transform="scale(1.17188 1.17188)" d="M342.734 457.542C354.918 463.11 366.986 471.707 378.545 478.627C377.531 480.633 376.696 482.555 376.192 484.751C375.119 489.422 375.793 494.175 378.434 498.219C381.896 503.521 387.977 506.864 394.083 508.08C402.037 509.664 408.644 507.783 415.271 503.387C428.081 511.375 441.305 518.809 454.292 526.515Q479.789 541.926 505.696 556.638C504.944 558.296 504.269 560.014 503.811 561.777Q503.614 562.548 503.497 563.335Q503.38 564.121 503.344 564.916Q503.308 565.711 503.354 566.505Q503.4 567.299 503.527 568.084Q503.654 568.87 503.861 569.638Q504.068 570.406 504.353 571.149Q504.637 571.891 504.997 572.601Q505.356 573.311 505.786 573.98C509.085 579.129 515.35 582.251 521.189 583.456C530.188 585.313 537.087 582.999 544.538 578.035C561.788 589.545 580.07 599.821 597.703 610.77Q582.561 618.501 567.513 626.416C554.311 633.913 540.769 640.826 527.473 648.164L404.797 575.651C376.411 558.98 347.573 542.746 319.519 525.548C335.946 502.835 342.974 485.759 342.734 457.542Z"/>
	<path fill="#92BAF8" transform="scale(1.17188 1.17188)" d="M604.936 615.278C609.322 615.395 652.842 642.416 661.785 646.942C647.736 661.759 612.321 677.774 593.306 688.021C568.313 701.489 543.449 715.078 518.291 728.246C503.802 735.83 484.505 743.28 473.663 755.666C465.884 764.55 461.754 775.541 462.678 787.393C463.935 803.504 474.242 814.156 485.942 824.026C475.207 843.219 472.808 863.656 477.049 885.087L476.925 886.213C476.24 886.251 476.189 886.293 475.411 886.105C471.782 885.224 466.84 881.642 463.565 879.755C443.489 868.186 420.744 851.969 409.923 830.788C398.119 807.684 393.684 783.256 401.964 758.081C407.84 740.214 419.731 723.132 433.884 710.792C448.953 697.652 476.386 685.15 494.572 675.085C504.122 669.799 513.38 663.988 522.932 658.708Q563.703 636.558 604.936 615.278Z"/>
	<path fill="#FDFDFD" transform="scale(1.17188 1.17188)" d="M1029.44 608.307C1031.21 609.246 1037.84 624.923 1039.66 628.185C1045.48 638.621 1052.75 646.958 1062.07 654.44C1065.43 657.141 1070.23 659.996 1072.76 663.451C1071.62 664.96 756.665 837.161 728.909 852.264C727.311 846.238 725.65 840.348 723.48 834.499C717.596 819.474 707.41 806.379 695.972 795.158L705.457 790.416C708.024 792.59 710.868 794.361 714.05 795.473C721.717 798.152 730.693 798.05 738.031 794.398C742.413 792.217 746.237 788.697 747.724 783.908C749.47 778.287 747.663 773.912 745.059 769.064C755.159 762.396 766.495 757.187 776.983 751.087C777.135 751.202 777.286 751.319 777.44 751.432L778.214 751.993C780.601 753.742 782.851 755.197 785.668 756.18C793.171 758.796 801.73 758.536 808.877 754.958C813.28 752.754 817.181 749.193 818.654 744.361C820.399 738.635 818.692 734.272 815.988 729.354C828.497 721.911 841.429 715.112 854.232 708.191C856.358 709.647 858.517 710.958 860.916 711.919C867.804 714.679 876.002 713.939 882.697 710.995C887.462 708.9 891.853 705.434 893.696 700.407C895.65 695.077 894.455 690.537 892.293 685.6C910.958 673.592 931.564 664.133 950.693 652.786C953.218 654.355 955.769 655.836 958.565 656.873C965.599 659.481 973.994 659.287 980.825 656.165C985.522 654.018 989.604 650.395 991.338 645.409C993.184 640.098 992.132 635.499 989.835 630.561C1002.6 622.501 1016.25 615.661 1029.44 608.307Z"/>
	<path fill="#FDFDFD" transform="scale(1.17188 1.17188)" d="M626.964 163.945C629.784 167.711 631.167 174.68 633.122 179.183C639.147 193.053 649.701 205.722 660.823 215.799C653.497 219.404 646.604 223.662 639.729 228.051C637.566 226.566 635.406 225.263 632.975 224.253C626.104 221.396 617.887 221.585 611.083 224.526C606.278 226.604 601.903 230.156 600.13 235.239C598.371 240.28 599.431 244.809 601.548 249.468Q584.13 258.907 566.562 268.064C560.606 264.407 554.018 262.681 547.043 263.755C540.884 264.704 534.509 267.657 530.845 272.87C526.901 278.483 528.002 283.909 529.16 290.131C516.807 296.91 504.653 304.054 492.326 310.886C485.121 306.577 477.849 304.374 469.451 306.299C463.828 307.588 458.287 310.577 455.292 315.688C451.955 321.382 452.809 326.815 454.386 332.808C442.817 340.653 429.319 346.841 417.037 353.579C414.968 351.447 412.946 350.043 410.147 349.056Q409.496 348.832 408.835 348.64Q408.173 348.448 407.503 348.289Q406.833 348.13 406.156 348.004Q405.479 347.878 404.797 347.786Q404.114 347.693 403.428 347.635Q402.742 347.576 402.054 347.551Q401.365 347.527 400.677 347.536Q399.988 347.545 399.301 347.588Q398.614 347.632 397.929 347.709Q397.245 347.786 396.565 347.896Q395.886 348.007 395.212 348.151Q394.539 348.295 393.873 348.472Q393.208 348.649 392.552 348.859Q391.896 349.069 391.251 349.311Q390.606 349.552 389.974 349.826Q389.342 350.099 388.724 350.403C384.166 352.615 380.218 356.216 378.613 361.142C377.002 366.084 378.126 369.806 380.263 374.255C362.409 385.623 343.201 395.362 324.845 405.951C324.482 406.048 324.1 406.393 323.755 406.243C323.268 406.031 310.397 391.687 308.038 389.642C294.262 377.699 279.822 370.976 262.801 364.736C274.941 357.056 288.338 350.55 300.907 343.498Q340.132 321.034 379.801 299.364L626.964 163.945Z"/>
	<path fill="#92BAF8" transform="scale(1.17188 1.17188)" d="M882.266 132.404C893.683 137.959 905.64 143.142 916.57 149.603C944.693 166.23 967.924 187.751 976.246 220.633Q976.516 221.719 976.759 222.812Q977.002 223.904 977.219 225.002Q977.436 226.1 977.626 227.203Q977.816 228.306 977.979 229.413Q978.142 230.52 978.278 231.631Q978.414 232.742 978.523 233.856Q978.632 234.97 978.714 236.086Q978.796 237.202 978.851 238.32Q978.906 239.438 978.934 240.557Q978.961 241.676 978.962 242.795Q978.962 243.914 978.935 245.033Q978.909 246.152 978.855 247.27Q978.801 248.388 978.719 249.504Q978.638 250.62 978.53 251.734Q978.422 252.848 978.287 253.959Q978.151 255.07 977.989 256.178Q977.827 257.285 977.638 258.388Q977.449 259.491 977.233 260.59Q977.017 261.688 976.775 262.78Q976.532 263.873 976.263 264.959Q975.994 266.046 975.699 267.125Q975.404 268.205 975.082 269.277Q974.761 270.349 974.413 271.413Q974.066 272.477 973.693 273.532Q973.32 274.587 972.921 275.633Q972.522 276.678 972.098 277.714Q971.674 278.75 971.225 279.775Q970.776 280.8 970.302 281.814Q969.829 282.828 969.33 283.83Q968.832 284.832 968.309 285.822Q967.787 286.812 967.24 287.788Q966.694 288.765 966.124 289.728C958.079 303.238 946.901 314.492 934.059 323.491C921.182 332.513 707.492 449.011 704.594 449.564C702.297 450.003 701.516 449.137 699.695 447.941C682.177 436.919 663.658 427.296 646.492 415.781C659.471 407.989 673.142 401.336 686.342 393.919L832.784 313.313C851.945 302.652 876.535 291.529 893.815 279.2C900.756 274.247 907.043 267.898 910.822 260.168C915.236 251.137 916.554 241.202 913.095 231.633C906.549 213.524 885.319 202.093 868.883 194.235C880.687 173.504 884.306 156.154 882.266 132.404Z"/>
	<path fill="#FDFDFD" transform="scale(1.17188 1.17188)" d="M1140.84 491.664C1141.53 491.604 1142.21 491.548 1142.9 491.516C1177.6 489.915 1211.74 499.615 1237.85 523.281C1254.79 538.631 1266.26 558.707 1267.27 581.89C1268.26 604.356 1260.29 625.496 1245.06 642.004C1223 665.916 1190.61 678.218 1158.55 679.647C1130.93 683.383 1093.97 669.272 1072.15 652.765C1052.95 638.246 1038.51 618.056 1035.27 593.721C1032.47 572.595 1039.8 551.891 1052.72 535.324C1073.48 508.721 1108.33 495.811 1140.84 491.664Z"/>
	<path fill="#1A52C9" transform="scale(1.17188 1.17188)" d="M1145.43 499.665Q1147.23 499.58 1149.03 499.522C1178.06 498.579 1209.57 509.43 1230.78 529.503C1245.36 543.309 1256.47 562.549 1256.98 582.987C1257.49 603.638 1248.36 623.283 1234.22 637.975C1213.74 659.269 1184.07 670.239 1154.88 670.818C1127.53 672.041 1096.37 661.022 1075.25 643.788C1059.95 631.302 1047.11 611.859 1045.15 591.858C1043.18 571.665 1050.71 552.217 1063.56 536.834C1082.55 514.088 1116.66 502.114 1145.43 499.665Z"/>
	<path fill="#FDFDFD" transform="scale(1.17188 1.17188)" d="M1150.66 507C1178.47 506.431 1206.35 516.221 1226.43 535.658C1239.67 548.481 1248.82 565.985 1249.03 584.667C1249.26 604.389 1240.8 620.794 1227.07 634.525C1206.28 655.31 1177.56 663.323 1148.89 663.378C1123.18 662.45 1095.18 651.648 1076.18 634.321C1062.93 622.233 1053.38 605.381 1052.6 587.179C1051.85 569.672 1058.65 553.367 1070.4 540.563C1090.37 518.798 1121.84 508.367 1150.66 507Z"/>
	<path fill="#1A52C9" transform="scale(1.17188 1.17188)" d="M1148.47 533.666C1161.87 533.181 1174.8 536.369 1185.31 544.98C1196.09 553.81 1203.23 566.284 1204.52 580.233Q1204.64 581.452 1204.7 582.676Q1204.76 583.9 1204.75 585.125Q1204.75 586.35 1204.69 587.574Q1204.63 588.798 1204.5 590.017Q1204.38 591.236 1204.19 592.447Q1204.01 593.658 1203.77 594.859Q1203.52 596.059 1203.22 597.247Q1202.91 598.434 1202.55 599.604Q1202.19 600.775 1201.77 601.926Q1201.35 603.077 1200.87 604.205Q1200.4 605.334 1199.87 606.438Q1199.33 607.542 1198.75 608.618Q1198.16 609.693 1197.52 610.739Q1196.89 611.784 1196.2 612.797Q1195.51 613.809 1194.77 614.786Q1194.03 615.763 1193.24 616.702C1184.15 627.506 1171.72 633.261 1157.8 634.514C1145 634.866 1132.01 632.325 1121.62 624.41Q1120.67 623.68 1119.75 622.904Q1118.84 622.128 1117.96 621.309Q1117.08 620.49 1116.25 619.629Q1115.41 618.768 1114.62 617.868Q1113.82 616.968 1113.07 616.03Q1112.32 615.092 1111.62 614.119Q1110.92 613.146 1110.26 612.14Q1109.61 611.135 1109 610.098Q1108.4 609.062 1107.84 607.997Q1107.29 606.932 1106.79 605.842Q1106.29 604.752 1105.84 603.638Q1105.39 602.525 1105 601.391Q1104.6 600.258 1104.26 599.106Q1103.92 597.955 1103.64 596.788Q1103.36 595.621 1103.13 594.442Q1102.91 593.263 1102.74 592.075C1100.88 578.249 1103.91 564.432 1112.48 553.304C1121.59 541.462 1133.87 535.501 1148.47 533.666Z"/>
	<path fill="#FDFDFD" transform="scale(1.17188 1.17188)" d="M1144.67 541.665C1156.63 540.326 1167.9 541.916 1177.99 548.861C1187.71 555.554 1194.87 566.38 1196.9 578.036C1198.75 588.719 1196.02 600.201 1189.78 609.045C1182.78 618.957 1172.29 624.519 1160.52 626.613C1160.32 626.677 1160.12 626.745 1159.92 626.805C1151.74 629.236 1139.4 625.904 1132.15 621.932Q1131.2 621.411 1130.27 620.842Q1129.35 620.273 1128.46 619.659Q1127.56 619.044 1126.7 618.385Q1125.84 617.726 1125.01 617.025Q1124.18 616.323 1123.39 615.581Q1122.6 614.839 1121.84 614.057Q1121.09 613.276 1120.38 612.458Q1119.67 611.639 1118.99 610.786Q1118.32 609.933 1117.7 609.047Q1117.07 608.161 1116.49 607.244Q1115.91 606.328 1115.37 605.383Q1114.84 604.439 1114.35 603.469Q1113.87 602.498 1113.43 601.505Q1112.99 600.511 1112.61 599.497Q1112.22 598.482 1111.89 597.45Q1111.55 596.417 1111.27 595.369C1108.19 584.204 1110.04 571.803 1115.88 561.827C1122.36 550.766 1132.59 544.824 1144.67 541.665Z"/>
	<path fill="#1A52C9" transform="scale(1.17188 1.17188)" d="M1173.78 567.664L1174.15 567.65C1174.92 567.615 1175.86 567.522 1176.61 567.745C1178.33 568.262 1178.86 569.202 1179.58 570.709C1179.51 571.468 1179.45 572.089 1179.11 572.786C1176.48 578.171 1150.51 606.171 1145.65 608.275C1145.22 607.621 1145.41 607.817 1144.89 607.354C1138.62 601.851 1131.95 592.18 1125.23 588.007C1125.04 587.117 1125.19 587.432 1124.72 586.702C1123.13 584.254 1121.67 582.193 1121.8 579.172C1123.08 577.534 1123.47 577.548 1125.39 576.934C1125.95 577.167 1126.42 577.366 1126.91 577.73C1130.51 580.382 1144.17 594.917 1144.95 598.758C1145.07 598.682 1145.19 598.604 1145.32 598.529C1150.37 595.471 1169.52 573.347 1173.78 567.664Z"/>
	<path fill="#FDFDFD" transform="scale(1.17188 1.17188)" d="M207.132 365.61C207.415 365.576 207.696 365.532 207.98 365.509C240.169 362.811 275.532 372.484 300.77 392.91C319.794 408.307 332.84 430.367 335.295 454.915C337.608 478.049 329.524 500.921 314.904 518.717C295.061 542.869 265.546 556.184 234.772 559.254L234.114 559.332C201.652 562.927 165.865 552.892 140.326 532.449C121.234 517.165 107.676 495.282 105.004 470.756C102.391 446.766 109.476 424.249 124.639 405.659C144.705 381.06 176.298 368.691 207.132 365.61Z"/>
	<path fill="#1A52C9" transform="scale(1.17188 1.17188)" d="M214.439 373.624C243.962 372.822 272.961 381.015 295.761 400.255C313.171 414.947 324.458 433.805 326.228 456.779C327.924 478.793 320.149 499.573 305.782 516.115C286.114 538.759 255.931 549.09 226.776 551.156C198.44 552.698 166.976 543.232 145.289 524.716C127.956 509.918 116.121 489.766 114.36 466.834C112.68 444.947 119.995 424.349 134.408 407.878C154.655 384.739 184.704 375.492 214.439 373.624Z"/>
	<path fill="#FDFDFD" transform="scale(1.17188 1.17188)" d="M207.332 381.603C234.616 378.071 265.337 386.64 287.312 402.982C303.543 415.051 315.299 432.225 318.192 452.465Q318.444 454.247 318.608 456.04Q318.772 457.833 318.846 459.632Q318.92 461.43 318.905 463.23Q318.89 465.03 318.786 466.828Q318.681 468.625 318.487 470.415Q318.294 472.204 318.011 473.982Q317.729 475.76 317.359 477.522Q316.989 479.284 316.531 481.025Q316.074 482.766 315.531 484.482Q314.988 486.198 314.36 487.885Q313.732 489.572 313.021 491.226Q312.31 492.88 311.518 494.497Q310.726 496.113 309.855 497.688Q308.984 499.263 308.035 500.793Q307.086 502.323 306.063 503.804Q305.04 505.285 303.944 506.713C287.461 528.365 261.789 539.593 235.437 543.192C205.908 546.466 174.523 538.272 151.13 519.684C135.353 507.149 124.373 490.079 122.216 469.797C120.038 449.315 125.167 431.258 138.169 415.298C155.539 393.976 180.723 384.289 207.332 381.603Z"/>
	<path fill="#1A52C9" transform="scale(1.17188 1.17188)" d="M205.822 398.763C210.944 398.738 215.978 398.52 221.091 398.242C224.276 398.068 228.623 397.645 231.077 400.118C234.65 403.718 233.855 409.714 233.875 414.396L242.163 417.275C245.725 414.411 249.145 411.792 253.148 409.546C253.31 409.627 253.475 409.706 253.636 409.791C253.904 409.932 254.169 410.081 254.437 410.223C255.996 411.053 257.453 411.915 258.865 412.981C263.01 416.11 272.157 422.51 272.887 427.61C271.458 431.825 267.488 433.745 263.936 435.987C265.21 439.215 266.793 442.283 268.351 445.38C271.78 445.243 277.195 444.322 280.036 446.56C282.198 450.481 282.169 456.031 282.029 460.392C281.924 463.661 281.721 468.068 279.188 470.407C275.648 471.411 271.168 470.751 267.479 470.593L264.161 480.577C266.854 482.265 271.002 484.349 272.616 487.179C273.198 488.199 273.397 488.767 273.026 489.9C271.176 495.55 258.762 504.299 253.663 507.268C249.605 505.15 246.007 501.864 242.464 498.979L233.971 502.39C234.165 506.734 235.056 511.704 233.451 515.82C226.6 517.234 211.232 517.901 204.923 515.109C202.4 511.999 203.427 506.192 203.57 502.313L195.895 499.378C193.693 501.648 190.854 505.082 187.89 506.243C186.644 506.731 185.693 506.55 184.517 505.926C178.89 502.938 169.214 494.213 167.219 488.007C168.202 484.17 172.742 481.933 175.843 479.806C174.752 476.875 173.496 473.993 172.301 471.102C167.986 471.026 163.711 470.688 159.413 470.335C159.038 464.99 158.627 459.134 158.598 453.787C158.585 451.448 159.017 449.038 160.859 447.425C163.634 444.996 168.681 445.954 172.139 446.136C173.408 442.728 174.872 439.899 176.967 436.932C173.596 434.837 169.308 432.74 166.657 429.785C166.579 429.036 166.625 428.506 166.967 427.821C169.63 422.498 180.434 412.168 186.007 410.214C189.749 411.494 193.408 415.333 196.469 417.853L203.625 414.129C203.554 413.168 203.515 412.226 203.518 411.262C203.53 407.406 202.883 401.685 205.822 398.763Z"/>
	<path fill="#92BAF8" transform="scale(1.17188 1.17188)" d="M211.934 406.433L225.6 406.813L225.749 419.765C232.183 421.244 238.266 423.053 244.253 425.868L253.426 418.067L264.535 427.431C261.274 429.86 258.165 432.379 255.111 435.064C257.76 440.55 260.124 445.919 261.843 451.779L274.539 451.957L274.589 463.909L262.768 463.684Q258.455 472.475 253.978 481.184C256.894 484.463 260.109 487.229 263.888 489.456C260.635 492.72 257.49 496.157 253.558 498.614C250.803 495.749 248.186 492.77 245.561 489.787C239.323 492.457 233.265 495.185 226.63 496.73L226.14 505.919C226.082 507.385 226.147 507.884 225.367 509.164C221.36 510.843 216.014 509.973 211.708 509.77L211.472 497.047C205.883 495.278 200.451 493.11 194.992 490.981C191.47 492.802 188.238 495.354 185.002 497.643C182.154 494.555 179.085 491.667 176.073 488.74C179.615 486.711 182.796 484.432 186.029 481.944C182.906 476.172 180.458 470.372 178.079 464.264Q172.358 463.97 166.678 463.226L166.628 453.516C170.03 453.156 174.026 453.109 177.129 451.646C180.474 447 183.282 441.3 185.088 435.873C183.924 432.186 178.879 429.924 175.77 428.035C178.715 424.806 182.311 422.051 185.631 419.213C188.867 421.589 192.243 423.549 195.744 425.508C200.911 423.379 206.638 422.236 211.973 420.515L211.934 406.433Z"/>
	<path fill="#1A52C9" transform="scale(1.17188 1.17188)" d="M219.294 429.553C226.496 429.469 234.294 431.933 239.965 436.406Q240.472 436.802 240.958 437.223Q241.444 437.643 241.909 438.088Q242.373 438.532 242.815 438.999Q243.257 439.466 243.675 439.954Q244.093 440.443 244.487 440.952Q244.88 441.46 245.247 441.988Q245.614 442.516 245.955 443.061Q246.296 443.607 246.608 444.168Q246.921 444.73 247.206 445.307Q247.49 445.883 247.746 446.473Q248.001 447.063 248.227 447.665Q248.453 448.268 248.648 448.88Q248.843 449.493 249.008 450.114Q249.173 450.736 249.306 451.365Q249.439 451.994 249.541 452.629Q249.643 453.264 249.713 453.903C250.64 461.997 247.773 470.402 242.693 476.677C237.233 483.421 229.948 486.533 221.491 487.422C214.127 487.337 206.953 485.998 200.97 481.441C194.898 476.815 190.822 469.261 189.879 461.723C188.963 454.398 191.225 446.698 195.815 440.935C201.693 433.555 210.215 430.605 219.294 429.553Z"/>
	<path fill="#FDFDFD" transform="scale(1.17188 1.17188)" d="M216.414 437.555C221.447 437.335 226.511 437.807 231.096 440.008Q231.558 440.227 232.008 440.469Q232.458 440.711 232.895 440.976Q233.332 441.24 233.756 441.526Q234.179 441.813 234.588 442.12Q234.996 442.427 235.389 442.754Q235.781 443.082 236.157 443.429Q236.532 443.775 236.89 444.141Q237.247 444.506 237.586 444.889Q237.924 445.271 238.243 445.671Q238.562 446.07 238.861 446.485Q239.159 446.9 239.436 447.33Q239.713 447.759 239.968 448.202Q240.223 448.645 240.456 449.1Q240.688 449.556 240.898 450.022Q241.107 450.488 241.292 450.965Q241.478 451.441 241.639 451.926Q241.799 452.421 241.934 452.924Q242.069 453.427 242.179 453.935Q242.289 454.444 242.374 454.957Q242.458 455.471 242.518 455.988Q242.577 456.505 242.611 457.024Q242.645 457.543 242.653 458.064Q242.661 458.584 242.644 459.104Q242.626 459.624 242.583 460.143Q242.54 460.662 242.471 461.178Q242.403 461.693 242.308 462.205Q242.214 462.717 242.095 463.224Q241.976 463.73 241.832 464.23Q241.688 464.73 241.519 465.223Q241.351 465.715 241.158 466.199Q240.966 466.682 240.75 467.156Q240.533 467.629 240.294 468.091C236.842 474.662 230.92 477.579 224.108 479.642C217.956 480.24 211.957 479.257 206.749 475.763C202.124 472.66 198.729 467.794 197.685 462.297Q197.588 461.79 197.517 461.279Q197.446 460.767 197.4 460.253Q197.355 459.739 197.335 459.223Q197.316 458.707 197.322 458.191Q197.328 457.675 197.36 457.159Q197.392 456.644 197.45 456.131Q197.508 455.618 197.592 455.109Q197.675 454.599 197.784 454.094Q197.893 453.59 198.027 453.091Q198.161 452.593 198.32 452.102Q198.479 451.61 198.663 451.128Q198.846 450.645 199.053 450.172Q199.26 449.7 199.491 449.238Q199.722 448.776 199.976 448.326Q200.229 447.877 200.505 447.44Q200.781 447.004 201.078 446.582C204.77 441.396 210.268 438.619 216.414 437.555Z"/>
	<path fill="#FDFDFD" transform="scale(1.17188 1.17188)" d="M592.449 769.614C622.835 766.448 661.895 777.53 685.732 796.748C705.168 812.417 719.032 833.832 721.552 859.073C723.825 881.833 717.405 902.938 702.893 920.622C680.256 948.208 646.436 959.707 612.013 963.067L611.297 963.13C576.821 965.985 539.773 954.243 513.395 931.796C496.432 917.362 484.339 894.237 482.578 871.981C480.774 849.194 489.328 827.881 504.06 810.763C526.486 784.704 558.814 772.187 592.449 769.614Z"/>
	<path fill="#1A52C9" transform="scale(1.17188 1.17188)" d="M594.198 777.612C594.293 777.6 594.387 777.585 594.481 777.578C623.684 775.507 655.513 784.664 678.308 803.232C695.163 816.961 707.46 836.1 709.565 858.016C711.4 877.115 705.634 897.658 693.314 912.455C671.771 938.328 643.335 949.365 610.679 952.481C579.412 953.511 548.967 946.206 524.803 925.194C507.803 910.413 496.295 890.857 494.862 867.998C493.578 847.521 502.106 826.741 515.517 811.512C534.957 789.435 565.621 779.561 594.198 777.612Z"/>
	<path fill="#FDFDFD" transform="scale(1.17188 1.17188)" d="M592.091 784.931C617.295 782.468 648.76 790.667 669.231 805.615C685.61 817.576 698.571 835.593 701.662 855.941C704.405 873.995 699.252 892.01 688.479 906.628C670.584 930.91 642.33 940.946 613.717 945.215C585.177 947.601 555.058 939.789 532.264 922.101C516.508 909.874 505.237 891.801 502.93 871.831C500.749 852.947 506.872 834.147 518.749 819.457C536.691 797.266 564.581 787.704 592.091 784.931Z"/>
	<path fill="#1A52C9" transform="scale(1.17188 1.17188)" d="M603.264 800.5C604.821 800.634 606.037 801.318 607.385 802.045C618.765 808.176 629.781 815.37 640.895 821.996C646.748 825.486 654.191 828.8 659.328 833.164C663.599 836.794 673.14 850.797 674.753 856.219C672.314 861.222 662.782 864.417 658.304 867.942L657.755 868.382L657.473 894.93C641.979 906.354 621 918.03 604.239 928.253C598.419 926.754 553.081 898.46 548.429 893.821L548.477 866.93C542.385 862.966 535.769 859.977 530.679 854.648C536.57 847.079 543.228 838.588 550.505 832.352C557.273 826.553 565.98 822.273 573.684 817.832Q588.545 809.288 603.264 800.5Z"/>
	<path fill="#FDFDFD" transform="scale(1.17188 1.17188)" d="M551.522 841.765C559.131 844.459 567.002 850.758 573.897 855.146Q584.945 862.148 596.228 868.764C592.413 872.735 588.772 876.707 585.331 881.014L584.35 880.952L584.973 881.308C581.408 880.608 547.183 857.296 541.214 853.71L551.522 841.765Z"/>
	<path fill="#FDFDFD" transform="scale(1.17188 1.17188)" d="M655.511 840.598C659.124 844.7 662.242 849.672 665.643 854.007C660.31 857.129 624.327 880.327 622.768 880.594C622.293 880.675 621.81 880.497 621.33 880.449C617.534 875.999 613.595 872.062 609.231 868.188C625.313 860.734 640.603 850.185 655.511 840.598Z"/>
	<path fill="#FDFDFD" transform="scale(1.17188 1.17188)" d="M649.082 873.347C650.682 875.069 649.918 887.99 649.92 890.988C636.476 900.118 622.113 908.171 608.42 916.983L608.266 906.167L608.305 876.987C612.699 882.063 616.918 887.511 622.246 891.637C630.725 884.694 639.693 878.977 649.082 873.347Z"/>
	<path fill="#FDFDFD" transform="scale(1.17188 1.17188)" d="M556.469 872.775C564.872 876.298 577.112 886.26 584.981 891.697C590.422 887.431 594.77 881.53 599.261 876.277C599.695 885.227 599.689 894.184 599.736 903.142L599.62 917.036C587.661 910.621 566.727 898.063 556.034 889.684L556.469 872.775Z"/>
	<path fill="#FDFDFD" transform="scale(1.17188 1.17188)" d="M603.485 809.285C606.942 809.084 643.389 832.212 650.073 835.62L602.808 863.978C600.791 863.893 562.186 839.126 556.932 835.88Q580.129 822.443 603.485 809.285Z"/>
	<path fill="#FDFDFD" transform="scale(1.17188 1.17188)" d="M741.134 44.936C741.263 44.918 741.391 44.895 741.52 44.8821C773.995 41.6368 810.678 52.3435 836.578 72.0879C856.679 87.4117 871.718 109.904 874.993 135.291C877.938 158.122 870.028 181.019 856.025 198.953C833.564 227.718 802.035 240.895 766.64 245.187C731.556 247.101 698.797 237.168 671.226 215.101C651.264 199.123 635.371 175.763 632.631 149.936C630.268 127.655 636.904 106.287 650.9 88.889C673.325 61.0128 706.524 48.6415 741.134 44.936Z"/>
	<path fill="#1A52C9" transform="scale(1.17188 1.17188)" d="M744.881 52.2783C775.078 49.9449 808.448 60.7136 831.639 80.1102C849.171 94.7742 862.571 115.994 864.403 139.119C866.039 159.77 858.791 180.101 845.379 195.771C824.481 220.189 796.486 232.239 764.851 234.636C734.224 235.35 703.953 228.449 679.7 208.789C660.887 193.539 645.607 172.928 643.273 148.154C641.221 126.37 648.331 106.74 662.323 90.105C683.222 65.2571 713.493 55.034 744.881 52.2783Z"/>
	<path fill="#FDFDFD" transform="scale(1.17188 1.17188)" d="M746.745 59.6109Q747.61 59.536 748.477 59.499C776.481 58.4738 808.073 68.8311 828.797 87.6352C844.656 102.025 855.94 121.21 856.856 143.022C857.665 162.288 849.669 179.752 836.786 193.779C817.247 215.053 789.974 226.399 761.356 227.571C731.661 227.683 703.209 219.635 680.386 199.989C664.213 186.068 651.966 166.307 650.528 144.659C649.286 125.963 656.915 107.019 669.196 93.0834C688.594 71.0709 718.303 61.4628 746.745 59.6109Z"/>
	<path fill="#1A52C9" transform="scale(1.17188 1.17188)" d="M785.616 80.2609C788.163 79.9618 790.903 80.0184 793.465 80.0939C801.508 80.3307 811.437 82.814 816.939 89.1234C822.785 95.8272 823.286 110.344 822.522 118.748C819.694 149.88 780.823 169.176 759.777 188.667C753.313 194.653 747.217 205.33 740.995 210.099C739.151 211.512 738.24 211.67 736.011 211.351C734 209.837 733.628 207.686 732.911 205.384C730.243 195.655 728.567 186.025 728.502 175.915C719.827 175.686 697.491 176.078 690.019 172.22C688.634 171.504 688.613 171.304 688.224 169.894C690.856 162.397 704.148 152.005 709.739 145.724C722.802 131.049 733.727 115.072 746.039 99.8657C756.767 86.6161 768.89 82.0437 785.616 80.2609Z"/>
	<path fill="#92BAF8" transform="scale(1.17188 1.17188)" d="M721.394 143.075C727.482 146.026 734.209 152.611 739.7 156.79Q751.685 165.817 764.069 174.286C755.536 181.792 748.224 189.462 741.022 198.266C740.234 199.179 740.404 199.282 739.14 199.521C735.62 193.437 736.458 175.298 736.472 168.11C724.308 168.059 712.252 167.952 700.132 166.754C707.685 159.226 714.516 151.207 721.394 143.075Z"/>
	<path fill="#92BAF8" transform="scale(1.17188 1.17188)" d="M786.33 87.592C791.077 87.1814 796.325 87.1124 800.99 88.1614C805.482 89.1713 809.682 91.3433 812.086 95.4344C816.602 103.118 815.635 117.096 813.221 125.331C808.064 142.922 785.933 160.326 770.28 168.927C767.294 167.086 764.406 165.046 761.491 163.095C749.722 155.01 738.352 146.095 727.117 137.28C735.375 127.634 742.15 116.748 750.051 106.803C760.37 93.8158 769.957 89.456 786.33 87.592Z"/>
	<path fill="#1A52C9" transform="scale(1.17188 1.17188)" d="M774.259 103.43C778.793 103.118 782.879 103.227 787.175 104.896C792.554 106.985 796.937 110.972 799.158 116.335C801.081 120.981 800.873 126.521 798.756 131.058C795.791 137.411 790.494 140.536 784.12 142.741C778.871 143.663 773.791 143.319 768.934 141.027Q768.456 140.806 767.991 140.561Q767.525 140.316 767.072 140.048Q766.62 139.78 766.181 139.489Q765.742 139.198 765.319 138.886Q764.896 138.573 764.489 138.24Q764.082 137.906 763.692 137.552Q763.302 137.199 762.931 136.826Q762.56 136.453 762.208 136.061Q761.856 135.67 761.524 135.262Q761.193 134.853 760.882 134.428Q760.572 134.003 760.283 133.563Q759.994 133.123 759.728 132.669Q759.462 132.215 759.219 131.748Q758.976 131.281 758.757 130.803Q758.538 130.324 758.344 129.835Q758.149 129.346 757.98 128.848C756.356 124.021 756.555 118.294 759.007 113.77C762.309 107.679 767.974 105.265 774.259 103.43Z"/>
	<path fill="#FDFDFD" transform="scale(1.17188 1.17188)" d="M775.242 110.776C777.901 110.645 780.445 110.519 783.009 111.379C786.431 112.526 789.535 114.941 791.126 118.225Q791.382 118.741 791.582 119.282Q791.781 119.822 791.923 120.381Q792.065 120.94 792.147 121.51Q792.229 122.081 792.25 122.656Q792.271 123.232 792.232 123.807Q792.192 124.382 792.092 124.95Q791.992 125.517 791.833 126.071Q791.674 126.625 791.457 127.159C789.66 131.582 785.898 133.691 781.731 135.398C779.383 135.493 776.864 135.65 774.583 135.007C770.923 133.975 767.368 131.421 765.692 127.946Q765.446 127.447 765.253 126.925Q765.059 126.402 764.921 125.863Q764.783 125.324 764.701 124.773Q764.619 124.223 764.595 123.666Q764.57 123.11 764.604 122.554Q764.637 121.999 764.727 121.449Q764.817 120.9 764.964 120.363Q765.111 119.826 765.312 119.307C767.093 114.726 770.996 112.582 775.242 110.776Z"/>
	<path fill="#FDFDFD" transform="scale(1.17188 1.17188)" d="M774.496 420.605C777.412 420.612 827.972 451.761 835.87 456.539C835.604 460.809 835.208 464.625 837.336 468.54C840.4 474.175 845.791 477.631 851.868 479.337C860.603 481.788 867.604 479.813 875.253 475.417C881.788 478.419 887.807 482.587 893.974 486.276C903.251 491.824 912.791 497.104 921.614 503.359C919.951 508.991 918.684 513.793 921.42 519.424C924.059 524.855 929.587 528.551 935.218 530.323C944.31 533.185 952.796 531.418 961.029 527.066C971.307 532.99 1023.99 561.767 1028.63 567.118C1029.51 570.661 1027.52 582.213 1027.5 587.209C1027.49 591.232 1028.75 595.866 1027.77 599.686C1024.07 604.53 991.682 619.704 983.938 624.787Q982.637 623.906 981.308 623.069C975.24 619.27 967.926 618.649 961.049 620.329C955.367 621.718 949.871 624.805 946.898 630.019C943.662 635.694 944.357 640.924 946.007 646.859C926.92 658.847 906.281 668.685 886.778 680.053C885.369 678.975 883.959 677.973 882.35 677.219C875.448 673.99 866.995 673.836 859.89 676.501C854.796 678.411 850.098 681.902 847.939 687.046C845.566 692.702 846.897 697.509 849.108 702.853Q829.482 712.736 810.253 723.37C808.877 722.535 807.5 721.701 806.073 720.955C800.053 717.809 792.399 717.812 786.038 719.87C780.612 721.625 775.402 725.051 772.887 730.338C770.447 735.465 771.157 739.743 772.89 744.856C761.754 750.839 750.713 757.38 739.243 762.686Q737.75 761.791 736.215 760.969C729.705 757.512 721.435 757.184 714.475 759.403C709.213 761.081 704.358 764.401 701.866 769.463C699.542 774.184 699.55 778.878 701.311 783.751L689.979 790.126C683.462 787.381 677.768 781.845 671.393 778.553C649.19 767.088 631.734 764.608 607.311 761.726C626.712 753.062 645.237 741.524 663.674 730.958Q696.091 712.424 728.857 694.513L853.664 625.36C875.976 613.03 898.707 601.136 920.657 588.19C922.857 586.892 924.957 585.478 926.264 583.23C925.399 580.992 923.297 580.047 921.304 578.781C912.066 572.914 902.373 567.622 892.956 562.032Q852.738 538.14 812.141 514.898C778.295 495.186 745.055 474.254 710.945 455.051Q742.442 437.314 774.496 420.605Z"/>
	<path fill="#FDFDFD" transform="scale(1.17188 1.17188)" d="M667.077 221.247C689.731 240.34 720.936 251.264 750.294 252.718C735.422 260.113 721.033 268.664 706.478 276.679L622.615 322.834L495.826 392.815C476.517 403.474 456.749 413.598 437.673 424.631C436.161 425.506 435.388 426.049 434.673 427.66C434.755 428.313 434.702 428.998 434.92 429.62C435.345 430.828 452.114 440.128 454.214 441.369C488.565 461.664 522.855 482.302 557.537 502.037C577.316 513.292 596.855 524.781 616.412 536.417C628.534 543.629 641.684 550.214 652.297 559.569C666.988 572.517 678.484 588.249 679.602 608.406C680.343 621.778 675.417 631.924 666.648 641.698Q648.322 631.576 630.642 620.365C603.712 603.893 575.299 589.707 549.012 572.111C550.665 567.393 550.939 562.48 548.802 557.857C546.396 552.649 541.704 549.294 536.386 547.497C527.204 544.394 518.741 546.754 510.391 550.893C491.122 539.925 472.144 528.648 453.132 517.254C442.247 510.731 431.234 504.533 420.657 497.503C421.999 493.269 422.229 489.245 420.617 485.017C418.536 479.561 414.317 475.824 409.088 473.479C400.756 469.743 393.416 470.745 385.171 473.956Q363.572 460.897 341.733 448.245C339.296 435.376 334.875 424.245 328.69 412.781C346.612 401.178 365.598 390.866 384.438 380.84Q387.027 382.269 389.755 383.413C397.113 386.468 406.299 386.386 413.639 383.331C418.125 381.465 422.045 378.281 423.801 373.622C425.74 368.476 424.784 363.998 422.6 359.223C434.475 351.483 447.32 344.972 459.764 338.18C462.559 340.137 465.313 341.746 468.617 342.696C476.098 344.846 484.412 344.232 491.258 340.399C495.323 338.123 498.864 334.704 500.042 330.054C501.373 324.799 499.646 320.892 497.167 316.433C509.655 310.173 521.743 302.793 533.993 296.049C537.757 298.779 541.848 300.655 546.408 301.593C553.369 303.024 561.33 302.197 567.348 298.198C573.072 294.394 574.791 289.725 576.131 283.222C575.101 279.802 573.987 277.001 572.153 273.927Q588.818 264.346 605.859 255.453C607.286 256.511 608.729 257.553 610.302 258.386C617.275 262.08 625.894 262.962 633.43 260.544C638.64 258.872 643.533 255.43 645.922 250.379C648.812 244.271 647.31 239.102 645.129 233.18C652.479 229.251 659.633 225.013 667.077 221.247Z"/>
	<path fill="#FDFDFD" transform="scale(1.17188 1.17188)" d="M864.765 200.443C875.697 204.446 897.711 219.189 903.427 229.117C907.235 235.732 908.277 243.265 906.288 250.63C904.005 259.086 898.759 266.349 891.874 271.633C883.647 277.948 873.958 282.548 864.852 287.489L819.865 311.784L642.728 409.417C640.447 410.703 634.631 413.349 633.946 415.797C638.922 422.492 672.205 440.14 681.28 445.624L784.68 507.804L874.23 559.566C887.539 567.362 900.515 575.72 913.836 583.512Q868.991 607.763 824.594 632.828L667.626 719.886C643.016 733.67 618.679 748.041 593.839 761.403C588.853 764.085 580.864 763.059 575.206 764.128C555.052 767.939 537.728 775.146 520.41 786.06C507.996 794.659 497.985 805.382 489.452 817.779C481.322 811.186 474.147 802.552 471.524 792.219C468.418 779.98 472.533 767.609 481.202 758.666C490.958 748.602 511.821 740.005 524.515 733.429Q573.855 708.054 622.209 680.847C633.727 674.273 645.828 668.733 656.544 660.836C666.043 653.837 674.751 645.774 680.692 635.448C687.908 622.903 689.119 608.764 685.346 594.889C680.555 577.272 668.818 563.826 655.198 552.283C644.467 543.189 631.671 536.522 619.59 529.407Q594.892 514.83 570.043 500.513C528.735 476.726 487.933 452.043 446.429 428.603C458.29 420.309 472.481 413.714 485.188 406.675L570.153 360.14Q642.494 319.538 715.522 280.186C731.026 271.842 746.229 262.318 762.046 254.638C768.525 251.492 775.223 252.041 782.12 250.678Q787.874 249.571 793.521 248.007Q799.169 246.442 804.672 244.43Q810.176 242.418 815.501 239.971Q820.825 237.524 825.937 234.658C841.419 225.787 853.097 213.741 864.765 200.443Z"/>
</svg>
